<svg width="288" height="377" viewBox="0 0 288 377" fill="none" xmlns="http://www.w3.org/2000/svg">
<rect width="288" height="377" fill="#D6E7FF"/>
<mask id="mask0_16_6" style="mask-type:alpha" maskUnits="userSpaceOnUse" x="139" y="195" width="142" height="160">
<path d="M148.882 325.242C143.607 310.077 146.271 276.741 199.124 264.714C265.189 249.681 262.816 242.165 272.31 218.033" stroke="white" stroke-width="15.8242" stroke-linecap="round"/>
<path d="M188.704 269.066C186.462 284.363 188.704 314.481 215.605 312.582C242.506 310.684 253.715 334.736 255.957 347" stroke="white" stroke-width="15.8242" stroke-linecap="round"/>
<path d="M240.662 248.89C229.453 241.242 209.805 221.356 220.882 203" stroke="white" stroke-width="15.8242" stroke-linecap="round"/>
</mask>
<g mask="url(#mask0_16_6)">
<circle cx="201" cy="269" r="74" fill="url(#paint0_radial_16_6)"/>
</g>
<g filter="url(#filter0_d_16_6)">
<path fill-rule="evenodd" clip-rule="evenodd" d="M205.996 248.417C208.553 245.718 210.122 242.072 210.122 238.061C210.122 229.743 203.379 223 195.061 223C186.743 223 180 229.743 180 238.061C180 242.531 181.947 246.546 185.04 249.304L195.748 264.934L205.996 248.417Z" fill="#4D76F2"/>
</g>
<g filter="url(#filter1_d_16_6)">
<circle cx="195.061" cy="238.061" r="8.564" fill="white"/>
</g>
<path d="M241.586 350.637L239.348 357H237.402L235.176 350.637H237.004L238.34 355.207H238.41L239.746 350.637H241.586ZM245.714 348.516V357H243.945V350.191H243.898L241.952 351.41V349.852L244.05 348.516H245.714ZM247.897 357.105C247.346 357.105 246.901 356.66 246.913 356.121C246.901 355.582 247.346 355.148 247.897 355.148C248.413 355.148 248.87 355.582 248.87 356.121C248.87 356.66 248.413 357.105 247.897 357.105ZM252.834 357.117C250.713 357.117 249.424 355.535 249.424 352.758C249.424 349.98 250.713 348.398 252.834 348.398C254.955 348.398 256.244 349.992 256.244 352.758C256.244 355.547 254.955 357.117 252.834 357.117ZM252.834 355.664C253.818 355.664 254.451 354.715 254.44 352.758C254.44 350.824 253.818 349.84 252.834 349.84C251.85 349.84 251.229 350.824 251.229 352.758C251.217 354.715 251.85 355.664 252.834 355.664ZM257.783 357.105C257.232 357.105 256.787 356.66 256.798 356.121C256.787 355.582 257.232 355.148 257.783 355.148C258.298 355.148 258.755 355.582 258.755 356.121C258.755 356.66 258.298 357.105 257.783 357.105ZM262.72 357.117C260.598 357.117 259.309 355.535 259.309 352.758C259.309 349.98 260.598 348.398 262.72 348.398C264.841 348.398 266.13 349.992 266.13 352.758C266.13 355.547 264.841 357.117 262.72 357.117ZM262.72 355.664C263.704 355.664 264.337 354.715 264.325 352.758C264.325 350.824 263.704 349.84 262.72 349.84C261.735 349.84 261.114 350.824 261.114 352.758C261.102 354.715 261.735 355.664 262.72 355.664Z" fill="#4D76F2"/>
<rect x="25" y="106" width="106.174" height="33" rx="16.5" fill="#4D76F2"/>
<path d="M51.3928 114.065C51.3928 119.317 47.9566 122.907 42.0036 124.439L40.9311 122.272C45.4069 121.134 47.9566 118.913 48.3943 116.231H42.0911V114.065H51.3928ZM57.499 112.927V124.045H54.6976V112.927H57.499ZM57.499 124.855V132.58H44.2141V124.855H57.499ZM46.9936 127.043V130.392H54.7632V127.043H46.9936ZM76.7432 112.905V132.821H74.0949V112.905H76.7432ZM72.6723 113.233V131.902H70.046V121.988H67.4196V119.733H70.046V113.233H72.6723ZM65.8219 118.245C65.8219 121.55 66.8506 124.898 69.7614 126.562L68.12 128.619C66.3472 127.569 65.1763 125.785 64.5087 123.651C63.8193 125.971 62.6156 127.941 60.7881 129.057L59.1028 126.999C62.0356 125.205 63.1299 121.615 63.1299 118.245V117.173H59.8689V114.94H68.8422V117.173H65.8219V118.245ZM95.6371 112.905V132.821H92.9451V112.905H95.6371ZM91.61 113.299V131.88H88.9618V122.644H87.0358V120.149H88.9618V113.299H91.61ZM87.4954 115.159V117.413H86.226V125.686C86.7841 125.643 87.3203 125.588 87.8237 125.511L88.0207 127.525C84.8691 128.203 80.7982 128.269 78.3032 128.269L77.9968 125.971H79.6601V117.413H78.3689V115.159H87.4954ZM82.1333 125.927C82.6476 125.905 83.1619 125.894 83.6872 125.861V117.413H82.1333V125.927ZM113.59 112.905V132.865H110.767V112.905H113.59ZM102.778 114.305C105.777 114.305 108.009 117.063 108.009 121.397C108.009 125.774 105.777 128.51 102.778 128.51C99.7141 128.51 97.4817 125.774 97.5036 121.397C97.4817 117.063 99.7141 114.305 102.778 114.305ZM102.778 116.822C101.224 116.822 100.196 118.442 100.196 121.397C100.196 124.373 101.224 125.971 102.778 125.971C104.288 125.971 105.317 124.373 105.317 121.397C105.317 118.442 104.288 116.822 102.778 116.822Z" fill="white"/>
<path d="M154.605 123.118C154.605 128.957 150.968 132.322 146.242 132.322C141.467 132.322 137.855 128.932 137.855 123.118C137.855 117.279 141.467 113.914 146.242 113.914C150.968 113.914 154.605 117.279 154.605 123.118ZM150.819 123.118C150.819 119.283 149.013 117.205 146.242 117.205C143.471 117.205 141.64 119.283 141.64 123.118C141.64 126.953 143.471 129.031 146.242 129.031C149.013 129.031 150.819 126.953 150.819 123.118ZM156.517 132.074V114.162H163.543C167.625 114.162 169.951 116.661 169.951 120.199C169.951 123.786 167.576 126.235 163.444 126.235H160.228V132.074H156.517ZM160.228 123.242H162.85C165.052 123.242 166.116 122.005 166.116 120.199C166.116 118.417 165.052 117.205 162.85 117.205H160.228V123.242ZM171.541 132.074V114.162H183.566V117.23H175.253V121.584H182.947V124.652H175.253V129.006H183.59V132.074H171.541ZM200.644 114.162V132.074H197.427L189.56 120.693H189.411V132.074H185.7V114.162H188.966L196.784 125.543H196.957V114.162H200.644ZM207.182 114.162L206.861 126.706H203.694L203.372 114.162H207.182ZM205.302 132.297C204.139 132.297 203.199 131.357 203.224 130.219C203.199 129.081 204.139 128.165 205.302 128.165C206.391 128.165 207.355 129.081 207.355 130.219C207.355 131.357 206.391 132.297 205.302 132.297Z" fill="#4D76F2"/>
<path d="M29.7995 154.584C29.7971 155.178 29.8682 155.742 30.013 156.278C30.1601 156.813 30.3941 157.296 30.715 157.725C31.0383 158.152 31.4496 158.485 31.9489 158.724L31.0624 159.896C30.5896 159.665 30.1879 159.345 29.8574 158.937C29.5269 158.53 29.2627 158.051 29.0649 157.501C28.8575 158.092 28.5752 158.608 28.2182 159.05C27.8612 159.489 27.4281 159.831 26.9191 160.077L26.0217 158.88C26.5524 158.641 26.9891 158.299 27.3316 157.855C27.6742 157.412 27.9239 156.91 28.0807 156.35C28.2399 155.788 28.3195 155.199 28.3195 154.584V153.285H29.7995V154.584ZM32.2203 152.587H33.6931V156.147H35.0247V157.389H33.6931V161.981H32.2203V152.587ZM43.5537 158.152H34.9922V156.98H36.8557V155.912C36.518 155.758 36.2599 155.565 36.0814 155.333C35.9029 155.102 35.8148 154.839 35.8172 154.544C35.8172 154.171 35.9571 153.846 36.237 153.571C36.5192 153.296 36.9209 153.085 37.442 152.938C37.963 152.788 38.5722 152.713 39.2693 152.713C39.9617 152.713 40.566 152.788 41.0822 152.938C41.6009 153.085 42.0013 153.296 42.2836 153.571C42.5683 153.846 42.7106 154.171 42.7106 154.544C42.7082 154.846 42.6141 155.114 42.4283 155.348C42.2426 155.582 41.9748 155.777 41.625 155.934V156.98H43.5537V158.152ZM35.9511 160.262C35.9511 159.9 36.0826 159.592 36.3455 159.339C36.6085 159.083 36.986 158.89 37.4781 158.76C37.9727 158.63 38.5637 158.565 39.2512 158.565C39.9291 158.565 40.5141 158.631 41.0062 158.764C41.4984 158.894 41.8759 159.087 42.1389 159.343C42.4018 159.596 42.5333 159.902 42.5333 160.262C42.5333 160.628 42.4018 160.94 42.1389 161.195C41.8759 161.451 41.4984 161.644 41.0062 161.774C40.5165 161.907 39.9315 161.972 39.2512 161.97C38.5637 161.972 37.9727 161.907 37.4781 161.774C36.9836 161.644 36.6049 161.451 36.3419 161.195C36.0814 160.94 35.9511 160.628 35.9511 160.262ZM37.3479 154.544C37.3455 154.776 37.5047 154.949 37.8255 155.062C38.1488 155.173 38.63 155.228 39.2693 155.228C40.5479 155.228 41.1872 155 41.1872 154.544C41.1872 154.313 41.0267 154.139 40.7059 154.023C40.3851 153.905 39.9158 153.846 39.2983 153.846C37.9908 153.846 37.3406 154.079 37.3479 154.544ZM37.4528 160.262C37.4504 160.474 37.5951 160.631 37.887 160.732C38.1813 160.831 38.6361 160.881 39.2512 160.881C39.8592 160.881 40.3115 160.83 40.6082 160.729C40.9049 160.627 41.0545 160.472 41.0569 160.262C41.0545 160.059 40.9061 159.911 40.6118 159.817C40.3175 159.723 39.864 159.674 39.2512 159.672C38.6313 159.674 38.1753 159.723 37.8834 159.817C37.5939 159.908 37.4504 160.057 37.4528 160.262ZM40.1595 156.98V156.289C39.8821 156.318 39.5854 156.332 39.2693 156.332C38.934 156.332 38.6264 156.316 38.3466 156.285V156.98H40.1595ZM51.7136 162.006H50.23V157.324H48.6559V156.151H50.23V152.587H51.7136V162.006ZM43.6623 159.122C44.1568 158.905 44.5682 158.6 44.8962 158.206C45.2267 157.813 45.4692 157.383 45.6236 156.915C45.7804 156.444 45.86 155.973 45.8624 155.5V155.254H43.9844V154.092H45.8733V152.815H47.3424V154.092H49.1734V155.254H47.3352V155.5C47.3327 155.951 47.4099 156.402 47.5667 156.853C47.726 157.302 47.972 157.716 48.3049 158.094C48.6403 158.473 49.0588 158.771 49.5606 158.988L48.7826 160.103C48.276 159.898 47.8405 159.598 47.4763 159.205C47.112 158.81 46.8225 158.348 46.6078 157.819C46.4004 158.381 46.1145 158.873 45.7502 159.296C45.386 159.718 44.9481 160.036 44.4367 160.251L43.6623 159.122ZM62.6445 161.981H61.255V152.587H62.6445V161.981ZM54.282 159.162C54.9357 158.754 55.4061 158.186 55.6932 157.457C55.9803 156.729 56.1238 155.928 56.1238 155.055V154.675H54.6692V153.499H58.8667V154.675H57.5423V155.055C57.5375 155.913 57.6738 156.684 57.9512 157.367C58.2286 158.05 58.6918 158.577 59.3407 158.948V156.94H58.2154V155.757H59.3407V152.724H60.7194V161.561H59.3407V158.956L58.4904 160.03C57.7305 159.589 57.1817 158.859 56.8439 157.841C56.6775 158.379 56.4555 158.853 56.1781 159.263C55.9007 159.673 55.563 160 55.1649 160.244L54.282 159.162ZM71.8285 160.924H63.2488V159.734H66.7914V158.087H64.1245V153.166H65.5973V154.552H69.4402V153.166H70.9057V158.087H68.2497V159.734H71.8285V160.924ZM69.4402 156.915V155.713H65.5973V156.915H69.4402ZM79.1263 157.135H74.4873V153.144H79.1263V157.135ZM74.9251 160.855C75.533 160.809 76.0469 160.714 76.4666 160.569C76.8888 160.425 77.2133 160.255 77.44 160.059C77.6668 159.864 77.8103 159.661 77.8706 159.451H75.3015V158.369H77.9285V157.638H79.4121V158.369H82.0356V159.451H79.47C79.5352 159.654 79.6811 159.853 79.9079 160.048C80.1371 160.241 80.4615 160.411 80.8813 160.559C81.301 160.703 81.8113 160.802 82.4119 160.855L81.9234 161.963C81.1539 161.9 80.4953 161.748 79.9477 161.507C79.4025 161.268 78.9791 160.966 78.6776 160.602C78.3784 160.966 77.9551 161.267 77.4075 161.503C76.8623 161.742 76.2013 161.895 75.4245 161.963L74.9251 160.855ZM77.668 155.992V154.288H75.9347V155.992H77.668ZM80.429 152.587H81.8945V157.895H80.429V152.587ZM88.4216 154.584C88.4191 155.211 88.4915 155.8 88.6387 156.35C88.7882 156.9 89.0283 157.389 89.3588 157.816C89.6893 158.24 90.1138 158.562 90.6325 158.782L89.7387 159.954C88.7762 159.493 88.0886 158.678 87.6761 157.508C87.4687 158.111 87.1876 158.636 86.833 159.082C86.4784 159.528 86.0454 159.876 85.5339 160.124L84.6148 158.923C85.1504 158.684 85.5894 158.342 85.932 157.895C86.277 157.447 86.5278 156.94 86.6846 156.375C86.8414 155.809 86.9211 155.211 86.9235 154.584V153.285H88.4216V154.584ZM89.5831 155.464H91.2947V152.587H92.753V162.006H91.2947V156.647H89.5831V155.464ZM101.423 162.006H99.9323V152.587H101.423V162.006ZM93.9761 153.325H95.4489V155.54H97.222V153.325H98.673V159.831H93.9761V153.325ZM97.222 158.641V156.683H95.4489V158.641H97.222ZM107.296 153.777C107.294 154.236 107.413 154.684 107.654 155.123C107.896 155.56 108.265 155.942 108.762 156.271C109.259 156.599 109.87 156.823 110.596 156.944L109.952 158.17C109.134 158.013 108.434 157.73 107.85 157.32C107.266 156.907 106.82 156.404 106.511 155.811C106.195 156.4 105.745 156.9 105.161 157.313C104.577 157.725 103.88 158.011 103.07 158.17L102.444 156.944C103.153 156.821 103.754 156.594 104.246 156.263C104.738 155.933 105.106 155.548 105.349 155.109C105.593 154.67 105.716 154.226 105.718 153.777V153.122H107.296V153.777ZM102.277 159.661H110.857V160.866H102.277V159.661ZM121.621 158.344H118.184V159.864H116.725V158.344H113.038V157.175H121.621V158.344ZM114.011 159.082H115.48V160.653H120.677V161.832H114.011V159.082ZM114.091 152.985H120.528V156.509H114.091V152.985ZM119.085 155.37V154.128H115.531V155.37H119.085ZM124.813 153.198C125.307 153.198 125.754 153.298 126.152 153.499C126.552 153.699 126.867 153.978 127.096 154.335C127.325 154.689 127.441 155.09 127.443 155.536C127.441 155.985 127.325 156.388 127.096 156.745C126.867 157.099 126.552 157.377 126.152 157.577C125.754 157.775 125.307 157.874 124.813 157.874C124.325 157.874 123.882 157.773 123.481 157.573C123.081 157.373 122.765 157.096 122.533 156.741C122.302 156.384 122.186 155.982 122.186 155.536C122.186 155.09 122.302 154.689 122.533 154.335C122.765 153.978 123.081 153.699 123.481 153.499C123.882 153.298 124.325 153.198 124.813 153.198ZM121.824 158.948C122.943 158.946 123.993 158.925 124.972 158.887C125.954 158.848 126.885 158.769 127.766 158.648L127.874 159.705C127.24 159.83 126.58 159.924 125.895 159.987C125.212 160.05 124.568 160.089 123.962 160.106C123.357 160.123 122.698 160.132 121.987 160.132L121.824 158.948ZM123.651 155.536C123.651 155.763 123.702 155.957 123.803 156.119C123.905 156.278 124.042 156.398 124.216 156.48C124.392 156.562 124.591 156.603 124.813 156.603C125.04 156.603 125.243 156.562 125.424 156.48C125.605 156.398 125.748 156.278 125.851 156.119C125.955 155.957 126.008 155.763 126.011 155.536C126.008 155.314 125.955 155.123 125.851 154.964C125.748 154.803 125.605 154.68 125.424 154.595C125.243 154.511 125.04 154.468 124.813 154.468C124.593 154.468 124.395 154.511 124.219 154.595C124.043 154.68 123.905 154.803 123.803 154.964C123.702 155.123 123.651 155.314 123.651 155.536ZM128.269 152.587H129.734V162.006H128.269V152.587ZM138.165 156.209H131.565V152.92H133.031V155.062H138.165V156.209ZM130.523 157.125H139.106V158.272H130.523V157.125ZM131.467 158.981H132.947V160.602H138.223V161.782H131.467V158.981ZM28.7938 166.335C30.1856 166.335 31.1885 167.604 31.1988 169.599C31.1885 171.616 30.1856 172.874 28.7938 172.874C27.3918 172.874 26.3786 171.616 26.3889 169.599C26.3786 167.604 27.3918 166.335 28.7938 166.335ZM28.7938 167.358C28.0161 167.358 27.4839 168.187 27.4839 169.599C27.4839 171.022 28.0161 171.851 28.7938 171.851C29.5818 171.851 30.1037 171.022 30.1037 169.599C30.1037 168.187 29.5818 167.358 28.7938 167.358ZM33.5525 165.659V169.211H34.975V170.173H33.5525V174.911H32.4166V165.659H33.5525ZM38.8155 166.601V170.05H36.4208V171.851C37.3623 171.841 38.2578 171.805 39.2863 171.636L39.3682 172.557C38.1196 172.762 37.1065 172.803 35.9603 172.803H35.3258V169.129H37.7205V167.522H35.3156V166.601H38.8155ZM43.0114 165.659V174.911H41.9266V170.132H40.8828V174.44H39.8389V165.833H40.8828V169.211H41.9266V165.659H43.0114ZM53.2099 165.659V169.344H54.6324V170.285H53.2099V174.911H52.0842V165.659H53.2099ZM51.3679 167.082V167.993H45.9133V167.082H48.1033V165.793H49.2392V167.082H51.3679ZM48.6764 168.597C50.0068 168.597 50.9994 169.497 50.9994 170.776C50.9994 172.056 50.0068 172.946 48.6764 172.946C47.3255 172.946 46.3329 172.056 46.3431 170.776C46.3329 169.497 47.3255 168.597 48.6764 168.597ZM48.6764 169.528C47.9498 169.528 47.4279 170.019 47.4279 170.776C47.4279 171.534 47.9498 172.015 48.6764 172.004C49.3825 172.015 49.9044 171.534 49.9147 170.776C49.9044 170.019 49.3825 169.528 48.6764 169.528ZM62.0036 165.659V168.259H63.3033V169.2H62.0036V172.352H60.8677V165.659H62.0036ZM59.2405 166.427V167.338H56.2215V169.855C57.9613 169.86 58.9284 169.799 60.0285 169.569L60.1513 170.49C58.9437 170.725 57.8589 170.787 55.8429 170.787H55.0958V166.427H59.2405ZM62.372 173.806V174.727H56.0783V171.646H57.2142V173.806H62.372ZM66.4479 166.304C67.9114 166.294 68.9859 167.225 68.9961 168.535C68.9859 169.855 67.9114 170.776 66.4479 170.776C64.9947 170.776 63.91 169.855 63.91 168.535C63.91 167.225 64.9947 166.294 66.4479 166.304ZM66.4479 167.287C65.6395 167.287 65.0357 167.768 65.0357 168.535C65.0357 169.313 65.6395 169.784 66.4479 169.784C67.2666 169.784 67.8807 169.313 67.8807 168.535C67.8807 167.768 67.2666 167.287 66.4479 167.287ZM71.1555 165.659V174.921H70.0195V165.659H71.1555ZM63.4904 172.056C65.1585 172.056 67.4713 172.035 69.4669 171.749L69.559 172.578C67.4815 172.977 65.2608 172.987 63.6336 172.987L63.4904 172.056ZM153.608 165.803C155.716 165.803 156.934 166.366 156.944 167.389C156.934 168.423 155.716 168.975 153.608 168.985C151.5 168.975 150.272 168.423 150.272 167.389C150.272 166.366 151.5 165.803 153.608 165.803ZM153.608 166.642C152.196 166.642 151.459 166.908 151.469 167.389C151.459 167.901 152.196 168.136 153.608 168.136C155.041 168.136 155.767 167.901 155.767 167.389C155.767 166.908 155.041 166.642 153.608 166.642ZM157.835 169.477V170.387H149.402V169.477H157.835ZM156.781 171.012V173.273H151.52V173.959H157.036V174.829H150.405V172.465H155.665V171.851H150.395V171.012H156.781ZM167.736 166.038V166.806C167.736 167.527 167.736 168.315 167.542 169.303H168.729V170.214H160.337V169.303H166.416C166.473 168.975 166.513 168.673 166.549 168.382L161.258 168.607L161.125 167.727L166.59 167.594C166.6 167.369 166.6 167.154 166.6 166.939H161.361V166.038H167.736ZM167.788 170.879V173.212H162.415V173.908H168.115V174.798H161.289V172.383H166.652V171.749H161.269V170.879H167.788ZM176.765 165.67V171.329H175.619V165.67H176.765ZM176.765 171.759V174.911H175.619V172.69H170.451V171.759H176.765ZM173.798 166.192V168.934H170.666V169.968C172.252 169.963 173.373 169.912 174.698 169.712L174.842 170.623C173.378 170.858 172.13 170.899 170.339 170.899H169.551V168.054H172.672V167.113H169.53V166.192H173.798ZM182.315 167.133V168.044H177.781V167.133H179.501V165.926H180.626V167.133H182.315ZM180.064 168.535C181.24 168.535 182.08 169.426 182.08 170.684C182.08 171.963 181.24 172.864 180.064 172.864C178.897 172.864 178.037 171.963 178.048 170.684C178.037 169.426 178.897 168.535 180.064 168.535ZM180.064 169.477C179.46 169.477 179.04 169.958 179.05 170.684C179.04 171.431 179.46 171.902 180.064 171.892C180.657 171.902 181.077 171.431 181.077 170.684C181.077 169.958 180.657 169.477 180.064 169.477ZM185.754 165.659V174.911H184.669V170.387H183.768V174.491H182.704V165.854H183.768V169.466H184.669V165.659H185.754ZM194.977 170.817V171.738H191.303V174.901H190.177V171.738H186.544V170.817H194.977ZM194.199 166.181V167.082H191.426C191.492 168.095 192.71 169.067 194.537 169.303L194.128 170.193C192.552 169.973 191.324 169.252 190.761 168.249C190.198 169.252 188.97 169.973 187.414 170.193L186.984 169.303C188.801 169.067 190.019 168.095 190.106 167.082H187.322V166.181H194.199ZM198.173 168.085C198.173 169.579 198.695 171.135 199.943 171.923L199.319 172.792C198.485 172.291 197.943 171.426 197.641 170.408C197.303 171.529 196.709 172.475 195.84 173.007L195.133 172.158C196.474 171.339 197.078 169.712 197.078 168.136V166.478H198.173V168.085ZM203.269 165.659V174.911H202.174V165.659H203.269ZM201.345 165.823V174.461H200.271V169.784H198.951V168.842H200.271V165.823H201.345ZM212.483 172.854V173.785H204.029V172.854H205.984V170.51C205.247 170.091 204.802 169.431 204.807 168.607C204.797 167.133 206.25 166.161 208.236 166.161C210.231 166.161 211.684 167.133 211.684 168.607C211.684 169.415 211.254 170.065 210.538 170.49V172.854H212.483ZM208.236 167.062C206.854 167.062 205.912 167.645 205.923 168.607C205.912 169.559 206.854 170.152 208.236 170.152C209.617 170.152 210.569 169.559 210.569 168.607C210.569 167.645 209.617 167.062 208.236 167.062ZM207.11 172.854H209.382V170.92C209.029 171.002 208.645 171.042 208.236 171.042C207.836 171.042 207.458 171.002 207.11 170.93V172.854ZM28.8348 179.335C29.6739 179.335 30.3647 179.801 30.7792 180.614H32.9385V178.659H34.0642V187.921H32.9385V184.421H30.861C30.4619 185.342 29.7302 185.874 28.8348 185.874C27.443 185.874 26.4605 184.616 26.4605 182.599C26.4605 180.604 27.443 179.335 28.8348 179.335ZM28.8348 180.358C28.0672 180.358 27.5453 181.187 27.5555 182.599C27.5453 184.022 28.0672 184.851 28.8348 184.851C29.6023 184.851 30.114 184.022 30.1242 182.599C30.114 181.187 29.6023 180.358 28.8348 180.358ZM31.0964 181.545C31.1629 181.868 31.1988 182.221 31.1988 182.599C31.1988 182.922 31.1732 183.219 31.1271 183.5H32.9385V181.545H31.0964ZM42.7965 178.659V187.921H41.6605V182.999H40.0743V182.067H41.6605V178.659H42.7965ZM39.5421 179.468V182.855H36.5129V184.8C37.8843 184.795 38.9946 184.749 40.238 184.523L40.3301 185.455C38.9486 185.7 37.7205 185.751 36.1241 185.751H35.3872V181.934H38.4267V180.389H35.3565V179.468H39.5421ZM52.2349 183.449V184.36H48.6633V185.956H47.5376V184.36H43.7818V183.449H52.2349ZM51.3036 186.806V187.727H44.8052V185.178H45.9309V186.806H51.3036ZM46.0127 178.956V180H50.0039V178.956H51.1296V182.722H44.887V178.956H46.0127ZM46.0127 181.822H50.0039V180.85H46.0127V181.822ZM55.533 179.304C56.9964 179.294 58.071 180.225 58.0812 181.535C58.071 182.855 56.9964 183.776 55.533 183.776C54.0798 183.776 52.995 182.855 52.995 181.535C52.995 180.225 54.0798 179.294 55.533 179.304ZM55.533 180.287C54.7245 180.287 54.1207 180.768 54.1207 181.535C54.1207 182.313 54.7245 182.784 55.533 182.784C56.3517 182.784 56.9657 182.313 56.9657 181.535C56.9657 180.768 56.3517 180.287 55.533 180.287ZM60.2405 178.659V187.921H59.1046V178.659H60.2405ZM52.5754 185.056C54.2436 185.056 56.5564 185.035 58.552 184.749L58.6441 185.578C56.5666 185.977 54.3459 185.987 52.7187 185.987L52.5754 185.056ZM71.9025 185.844V186.765H63.4494V185.844H67.0722V183.705H68.1979V185.844H71.9025ZM68.2286 179.898C68.2286 181.3 69.6306 182.681 71.575 182.988L71.0838 183.93C69.5181 183.633 68.2388 182.738 67.6248 181.525C67.0108 182.733 65.7418 183.643 64.1863 183.93L63.695 182.988C65.6292 182.681 67.0108 181.29 67.021 179.898V179.222H68.2286V179.898ZM80.6246 182.906V183.828H76.9609V184.595C78.6187 184.708 79.5909 185.281 79.6012 186.243C79.5909 187.307 78.3936 187.901 76.398 187.901C74.382 187.901 73.1744 187.307 73.1744 186.243C73.1744 185.281 74.1568 184.703 75.8352 184.595V183.828H72.1919V182.906H80.6246ZM76.398 185.455C75.0472 185.465 74.3206 185.731 74.3308 186.243C74.3206 186.754 75.0472 187.031 76.398 187.031C77.7182 187.031 78.455 186.754 78.4652 186.243C78.455 185.731 77.7182 185.465 76.398 185.455ZM79.8673 179.069V179.98H77.2065C77.3856 180.742 78.4908 181.428 80.2254 181.586L79.8263 182.487C78.148 182.318 76.8995 181.648 76.398 180.706C75.8966 181.643 74.6685 182.318 72.9902 182.487L72.6013 181.586C74.3001 181.428 75.4053 180.732 75.5998 179.98H72.9595V179.069H79.8673ZM88.2311 178.67V181.576H89.5206V182.518H88.2311V185.578H87.0952V178.67H88.2311ZM86.43 179.693V180.604H80.9447V179.693H83.1245V178.659H84.2604V179.693H86.43ZM83.6873 180.983C85.0177 180.983 85.9387 181.689 85.949 182.753C85.9387 183.807 85.0177 184.503 83.6873 184.503C82.3467 184.503 81.4154 183.807 81.4154 182.753C81.4154 181.689 82.3467 180.983 83.6873 180.983ZM83.6873 181.863C82.9812 181.863 82.5207 182.19 82.5207 182.753C82.5207 183.306 82.9812 183.633 83.6873 183.623C84.3934 183.633 84.8642 183.306 84.8642 182.753C84.8642 182.19 84.3934 181.863 83.6873 181.863ZM88.5995 186.806V187.727H82.3058V185.035H83.4417V186.806H88.5995ZM99.8112 178.659V187.911H98.7264V178.659H99.8112ZM97.9282 178.833V187.461H96.8537V182.804H95.5233V181.883H96.8537V178.833H97.9282ZM94.7046 181.187C94.7046 182.753 95.2674 184.319 96.5876 185.076L95.9122 185.915C95.0576 185.404 94.4897 184.523 94.1724 183.469C93.8449 184.61 93.2565 185.583 92.3815 186.13L91.6856 185.281C93.0262 184.472 93.6096 182.794 93.6096 181.187V180.573H92.0029V179.652H96.1987V180.573H94.7046V181.187ZM109.045 185.864V186.795H100.592V185.864H104.235V184.063H101.523V179.274H102.659V180.788H106.947V179.274H108.083V184.063H105.361V185.864H109.045ZM102.659 183.142H106.947V181.699H102.659V183.142ZM116.58 178.659V182.272H117.951V183.224H116.58V187.89H115.444V178.659H116.58ZM114.134 179.621C114.134 182.344 113.008 184.728 109.928 186.243L109.283 185.363C111.535 184.242 112.752 182.666 112.988 180.563H109.785V179.621H114.134ZM123.749 180.88C123.739 182.579 124.629 184.278 126.134 184.923L125.458 185.833C124.394 185.342 123.611 184.36 123.186 183.152C122.762 184.457 121.969 185.521 120.843 186.048L120.147 185.097C121.692 184.431 122.593 182.661 122.593 180.88V179.407H123.749V180.88ZM127.945 178.659V187.921H126.799V178.659H127.945ZM133.924 179.427V183.828H129.463V179.427H133.924ZM130.588 180.338V182.917H132.799V180.338H130.588ZM136.698 178.67V185.27H135.552V178.67H136.698ZM136.954 186.744V187.665H130.578V184.646H131.724V186.744H136.954ZM146.177 183.449V184.36H142.606V185.956H141.48V184.36H137.724V183.449H146.177ZM145.246 186.806V187.727H138.747V185.178H139.873V186.806H145.246ZM139.955 178.956V180H143.946V178.956H145.072V182.722H138.829V178.956H139.955ZM139.955 181.822H143.946V180.85H139.955V181.822ZM154.92 182.364V183.265H146.477V182.364H154.92ZM153.917 180.87V181.771H147.551V178.895H153.835V179.806H148.687V180.87H153.917ZM153.855 183.899V186.222H148.595V186.928H154.111V187.819H147.48V185.404H152.74V184.759H147.469V183.899H153.855ZM157.501 179.744C157.491 181.924 157.246 184.032 156.018 185.854L155.127 185.373C156.151 183.935 156.447 182.436 156.519 180.665H155.393V179.744H157.501ZM159.569 179.744C159.564 180.537 159.548 181.361 159.466 182.18H160.398V178.885H161.472V187.471H160.398V183.101H159.343C159.139 184.247 158.765 185.363 158.085 186.366L157.215 185.874C158.325 184.283 158.54 182.502 158.586 180.665H157.778V179.744H159.569ZM163.263 178.659V187.911H162.168V178.659H163.263ZM170.811 179.499V180.43H167.731V184.738C169.174 184.728 170.192 184.667 171.343 184.452L171.466 185.373C170.166 185.629 169.051 185.68 167.321 185.68H166.584V179.499H170.811ZM173.902 178.659V187.921H172.766V182.845H170.32V181.914H172.766V178.659H173.902ZM183.309 183.06V183.961H179.646V184.882H182.276V187.911H181.14V185.782H175.808V184.882H178.52V183.961H174.877V183.06H183.309ZM179.083 178.854C181.109 178.854 182.409 179.55 182.419 180.676C182.409 181.801 181.109 182.487 179.083 182.487C177.056 182.487 175.747 181.801 175.747 180.676C175.747 179.55 177.056 178.854 179.083 178.854ZM179.083 179.744C177.732 179.744 176.923 180.082 176.934 180.676C176.923 181.269 177.732 181.597 179.083 181.597C180.434 181.597 181.242 181.269 181.242 180.676C181.242 180.082 180.434 179.744 179.083 179.744ZM188.296 179.499V180.43H185.216V184.738C186.659 184.728 187.677 184.667 188.828 184.452L188.951 185.373C187.651 185.629 186.536 185.68 184.806 185.68H184.069V179.499H188.296ZM191.387 178.659V187.921H190.251V182.845H187.805V181.914H190.251V178.659H191.387ZM202.046 182.866V183.766H199.303V185.885H202.987V186.816H194.534V185.885H198.177V183.766H195.558V179.345H201.974V180.256H196.693V182.866H202.046ZM207.483 178.803C209.529 178.803 210.809 179.468 210.819 180.583C210.809 181.678 209.529 182.333 207.483 182.323C205.456 182.333 204.146 181.678 204.146 180.583C204.146 179.468 205.456 178.803 207.483 178.803ZM207.483 179.683C206.132 179.683 205.323 180 205.334 180.583C205.323 181.146 206.132 181.453 207.483 181.453C208.834 181.453 209.642 181.146 209.642 180.583C209.642 180 208.834 179.683 207.483 179.683ZM210.686 184.687V187.798H204.269V184.687H206.92V183.797H203.277V182.886H211.709V183.797H208.046V184.687H210.686ZM205.395 185.588V186.877H209.581V185.588H205.395ZM219.715 178.659V187.921H218.569V178.659H219.715ZM214.731 179.335C216.123 179.335 217.136 180.604 217.146 182.599C217.136 184.616 216.123 185.874 214.731 185.874C213.329 185.874 212.316 184.616 212.316 182.599C212.316 180.604 213.329 179.335 214.731 179.335ZM214.731 180.358C213.943 180.358 213.411 181.187 213.411 182.599C213.411 184.022 213.943 184.851 214.731 184.851C215.509 184.851 216.041 184.022 216.041 182.599C216.041 181.187 215.509 180.358 214.731 180.358ZM228.488 178.67V184.002H227.342V178.67H228.488ZM220.782 182.958C221.524 182.958 222.379 182.953 223.269 182.927V182.108H221.58V179.1H226.032V180.01H222.727V181.218H226.104V182.108H224.405V182.886C225.183 182.845 225.965 182.784 226.697 182.692L226.759 183.48C224.773 183.817 222.583 183.848 220.936 183.868L220.782 182.958ZM223.392 184.39V185.199H227.362V184.39H228.488V187.798H222.256V184.39H223.392ZM223.392 186.877H227.362V186.048H223.392V186.877ZM237.22 178.659V187.911H236.095V178.659H237.22ZM231.162 179.56V184.616C232.462 184.595 233.843 184.477 235.266 184.196L235.409 185.148C233.782 185.485 232.267 185.588 230.835 185.588H230.036V179.56H231.162ZM245.492 178.659V182.17H246.915V183.101H245.492V187.921H244.356V178.659H245.492ZM242.954 179.54V180.461H239.761V184.708C241.199 184.708 242.335 184.636 243.609 184.411L243.742 185.373C242.309 185.618 241.061 185.659 239.393 185.659H238.625V179.54H242.954ZM248.893 179.591L248.78 184.82H247.624L247.501 179.591H248.893ZM248.207 187.082C247.767 187.082 247.409 186.724 247.409 186.284C247.409 185.854 247.767 185.496 248.207 185.496C248.627 185.496 248.995 185.854 248.995 186.284C248.995 186.724 248.627 187.082 248.207 187.082Z" fill="#212121"/>
<path d="M75.1114 176.088V166.274H77.9359V167.409H76.5646V174.952H77.9359V176.088H75.1114ZM86.1565 165.629V174.942H84.9182V165.629H86.1565ZM84.253 165.782V174.512H83.025V169.876H81.7969V168.822H83.025V165.782H84.253ZM81.0499 168.126C81.0499 169.671 81.5309 171.237 82.8919 172.015L82.1244 172.977C81.2955 172.485 80.748 171.651 80.4358 170.654C80.1135 171.738 79.5506 172.659 78.6961 173.181L77.9081 172.219C79.2794 171.38 79.7911 169.702 79.7911 168.126V167.624H78.2663V166.581H82.4621V167.624H81.0499V168.126ZM95.3698 172.792V173.857H86.845V172.792H90.4371V171.073H87.7456V166.222H89.0555V167.665H93.1183V166.222H94.418V171.073H91.7368V172.792H95.3698ZM89.0555 170.029H93.1183V168.709H89.0555V170.029ZM102.713 166.192V170.111H98.1591V166.192H102.713ZM99.4485 167.205V169.088H101.413V167.205H99.4485ZM105.476 165.629V170.909H104.177V165.629H105.476ZM105.64 171.421V172.393H103.03C103.174 173.028 104.156 173.76 105.998 173.939L105.558 174.921C104.008 174.778 102.908 174.215 102.345 173.478C101.766 174.225 100.661 174.773 99.1006 174.921L98.6503 173.939C100.518 173.79 101.5 173.043 101.639 172.393H99.029V171.421H101.68V170.654H102.989V171.421H105.64ZM117.046 170.234V171.268H113.536V172.874H112.246V171.268H108.521V170.234H117.046ZM115.951 166.038V169.466H109.586V166.038H115.951ZM110.865 167.051V168.453H114.672V167.051H110.865ZM116.105 173.734V174.778H109.524V172.066H110.824V173.734H116.105ZM120.293 166.253C121.767 166.243 122.872 167.205 122.872 168.535C122.872 169.876 121.767 170.828 120.293 170.828C118.819 170.828 117.704 169.876 117.704 168.535C117.704 167.205 118.819 166.243 120.293 166.253ZM120.293 167.379C119.556 167.379 118.993 167.809 119.004 168.535C118.993 169.272 119.556 169.692 120.293 169.692C121.03 169.692 121.593 169.272 121.603 168.535C121.593 167.809 121.04 167.379 120.293 167.379ZM125.103 165.629V174.962H123.803V165.629H125.103ZM117.315 171.994C118.973 172.004 121.276 171.974 123.271 171.697L123.373 172.639C121.306 173.038 119.096 173.058 117.469 173.058L117.315 171.994ZM128.77 176.088H125.945V174.952H127.316V167.409H125.945V166.274H128.77V176.088ZM139.746 165.629V174.962H138.456V169.968H136.727V172.751H132.234V166.345H133.534V168.607H135.448V166.345H136.727V168.914H138.456V165.629H139.746ZM133.534 171.708H135.448V169.63H133.534V171.708ZM149.123 170.664V171.687H140.608V170.664H149.123ZM148.263 173.734V174.778H141.652V172.158H142.942V173.734H148.263ZM148.212 169.098V170.08H141.673V165.936H148.13V166.928H142.983V167.522H147.915V168.484H142.983V169.098H148.212Z" fill="#4D76F2"/>
<path d="M24.7754 333.774H28.2601V332.916H29.7184V336.781H27.2542V337.512H30.8112V338.684H22.2497V337.512H25.7669V336.781H23.328V332.916H24.7754V333.774ZM23.2556 339.151H24.732V340.653H29.8306V341.832H23.2556V339.151ZM28.2601 335.616V334.899H24.7754V335.616H28.2601ZM36.6508 334.584C36.6483 335.211 36.7207 335.8 36.8679 336.35C37.0174 336.9 37.2575 337.389 37.588 337.816C37.9185 338.24 38.343 338.562 38.8617 338.782L37.9679 339.954C37.0054 339.493 36.3178 338.678 35.9053 337.508C35.6979 338.111 35.4168 338.636 35.0622 339.082C34.7076 339.528 34.2746 339.876 33.7631 340.124L32.844 338.923C33.3796 338.684 33.8186 338.342 34.1612 337.895C34.5062 337.447 34.757 336.94 34.9138 336.375C35.0706 335.809 35.1503 335.211 35.1527 334.584V333.285H36.6508V334.584ZM37.8123 335.464H39.5239V332.587H40.9822V342.006H39.5239V336.647H37.8123V335.464ZM49.6523 342.006H48.1615V332.587H49.6523V342.006ZM42.2053 333.325H43.6781V335.54H45.4512V333.325H46.9022V339.831H42.2053V333.325ZM45.4512 338.641V336.683H43.6781V338.641H45.4512ZM55.5253 333.777C55.5229 334.236 55.6423 334.684 55.8835 335.123C56.1248 335.56 56.4939 335.942 56.9908 336.271C57.4878 336.599 58.0993 336.823 58.8254 336.944L58.1813 338.17C57.3635 338.013 56.6627 337.73 56.0789 337.32C55.4951 336.907 55.0488 336.404 54.7401 335.811C54.424 336.4 53.9741 336.9 53.3903 337.313C52.8065 337.725 52.1094 338.011 51.2988 338.17L50.6728 336.944C51.382 336.821 51.9827 336.594 52.4748 336.263C52.967 335.933 53.3348 335.548 53.5785 335.109C53.8221 334.67 53.9452 334.226 53.9476 333.777V333.122H55.5253V333.777ZM50.5063 339.661H59.086V340.866H50.5063V339.661ZM66.8804 336.209H60.2801V332.92H61.7456V335.062H66.8804V336.209ZM59.238 337.125H67.8212V338.272H59.238V337.125ZM60.1824 338.981H61.6624V340.602H66.9383V341.782H60.1824V338.981ZM74.2397 338.409C74.9273 338.409 75.5231 338.48 76.0273 338.623C76.5315 338.765 76.9199 338.971 77.1925 339.241C77.4675 339.509 77.6062 339.83 77.6086 340.204C77.6062 340.573 77.4675 340.891 77.1925 341.159C76.9199 341.429 76.5303 341.634 76.0237 341.774C75.5195 341.917 74.9248 341.987 74.2397 341.984C73.5619 341.987 72.9696 341.917 72.463 341.774C71.9564 341.632 71.5644 341.427 71.287 341.159C71.012 340.891 70.8745 340.573 70.8745 340.204C70.8745 339.83 71.012 339.509 71.287 339.241C71.562 338.971 71.9528 338.766 72.4594 338.626C72.966 338.484 73.5594 338.412 74.2397 338.409ZM70.0422 336.726H73.1252V335.131H74.5835V336.726H78.5567V337.906H70.0422V336.726ZM70.983 332.996H77.5724V333.756C77.5724 334.089 77.5676 334.374 77.558 334.613C77.5507 334.852 77.5266 335.114 77.4856 335.398C77.447 335.683 77.3855 335.975 77.301 336.274L75.8536 336.137C75.9429 335.772 76.0032 335.437 76.0345 335.131C76.0659 334.822 76.084 334.491 76.0888 334.139H70.983V332.996ZM72.3508 340.204C72.3484 340.431 72.5064 340.598 72.8249 340.707C73.1433 340.815 73.6149 340.871 74.2397 340.873C74.867 340.871 75.341 340.815 75.6618 340.707C75.9851 340.598 76.1479 340.431 76.1503 340.204C76.1479 339.97 75.9863 339.795 75.6654 339.679C75.3446 339.561 74.879 339.502 74.2687 339.502C73.6366 339.502 73.1578 339.56 72.8321 339.676C72.5089 339.791 72.3484 339.968 72.3508 340.204ZM82.9822 338.409C83.6698 338.409 84.2656 338.48 84.7698 338.623C85.274 338.765 85.6624 338.971 85.935 339.241C86.21 339.509 86.3487 339.83 86.3511 340.204C86.3487 340.573 86.21 340.891 85.935 341.159C85.6624 341.429 85.2728 341.634 84.7662 341.774C84.262 341.917 83.6673 341.987 82.9822 341.984C82.3044 341.987 81.7121 341.917 81.2055 341.774C80.6989 341.632 80.3069 341.427 80.0295 341.159C79.7545 340.891 79.617 340.573 79.617 340.204C79.617 339.83 79.7545 339.509 80.0295 339.241C80.3045 338.971 80.6953 338.766 81.2019 338.626C81.7085 338.484 82.3019 338.412 82.9822 338.409ZM78.7847 336.726H81.8677V335.131H83.326V336.726H87.2992V337.906H78.7847V336.726ZM79.7255 332.996H86.3149V333.756C86.3149 334.089 86.3101 334.374 86.3005 334.613C86.2932 334.852 86.2691 335.114 86.2281 335.398C86.1895 335.683 86.128 335.975 86.0435 336.274L84.5961 336.137C84.6854 335.772 84.7457 335.437 84.777 335.131C84.8084 334.822 84.8265 334.491 84.8313 334.139H79.7255V332.996ZM81.0933 340.204C81.0909 340.431 81.2489 340.598 81.5674 340.707C81.8858 340.815 82.3574 340.871 82.9822 340.873C83.6094 340.871 84.0835 340.815 84.4043 340.707C84.7276 340.598 84.8904 340.431 84.8928 340.204C84.8904 339.97 84.7288 339.795 84.4079 339.679C84.0871 339.561 83.6215 339.502 83.0112 339.502C82.3791 339.502 81.9003 339.56 81.5746 339.676C81.2513 339.791 81.0909 339.968 81.0933 340.204ZM90.527 333.198C91.0215 333.198 91.4678 333.298 91.8659 333.499C92.2663 333.699 92.5811 333.978 92.8103 334.335C93.0395 334.689 93.1553 335.09 93.1577 335.536C93.1553 335.985 93.0395 336.388 92.8103 336.745C92.5811 337.099 92.2663 337.377 91.8659 337.577C91.4678 337.775 91.0215 337.874 90.527 337.874C90.0397 337.874 89.5958 337.773 89.1954 337.573C88.7949 337.373 88.4789 337.096 88.2473 336.741C88.0157 336.384 87.8999 335.982 87.8999 335.536C87.8999 335.09 88.0157 334.689 88.2473 334.335C88.4789 333.978 88.7949 333.699 89.1954 333.499C89.5958 333.298 90.0397 333.198 90.527 333.198ZM87.538 338.948C88.6574 338.946 89.7068 338.925 90.6862 338.887C91.668 338.848 92.5992 338.769 93.4797 338.648L93.5883 339.705C92.9538 339.83 92.2941 339.924 91.6089 339.987C90.9262 340.05 90.2821 340.089 89.6766 340.106C89.0711 340.123 88.4125 340.132 87.7009 340.132L87.538 338.948ZM89.3654 335.536C89.3654 335.763 89.4161 335.957 89.5174 336.119C89.6187 336.278 89.7562 336.398 89.9299 336.48C90.106 336.562 90.305 336.603 90.527 336.603C90.7537 336.603 90.9576 336.562 91.1385 336.48C91.3195 336.398 91.4618 336.278 91.5655 336.119C91.6692 335.957 91.7223 335.763 91.7247 335.536C91.7223 335.314 91.6692 335.123 91.5655 334.964C91.4618 334.803 91.3195 334.68 91.1385 334.595C90.9576 334.511 90.7537 334.468 90.527 334.468C90.3075 334.468 90.1096 334.511 89.9335 334.595C89.7574 334.68 89.6187 334.803 89.5174 334.964C89.4161 335.123 89.3654 335.314 89.3654 335.536ZM93.9827 332.587H95.4482V342.006H93.9827V332.587ZM105.757 336.303H103.282V337.103H106.839V338.279H98.2771V337.103H101.794V336.303H99.3193V332.956H105.757V336.303ZM99.2216 338.88H105.804V341.981H104.335V340.03H99.2216V338.88ZM104.313 335.156V334.096H100.759V335.156H104.313ZM112.444 334.241H110.656C110.673 334.6 110.758 334.945 110.91 335.275C111.062 335.606 111.292 335.905 111.601 336.173C111.91 336.438 112.296 336.647 112.759 336.799L112.039 337.931C111.542 337.779 111.116 337.553 110.761 337.251C110.409 336.95 110.127 336.59 109.914 336.173C109.702 336.636 109.41 337.035 109.039 337.371C108.667 337.703 108.217 337.952 107.689 338.116L106.936 336.954C107.424 336.802 107.829 336.585 108.152 336.303C108.476 336.018 108.717 335.7 108.876 335.348C109.035 334.993 109.124 334.624 109.144 334.241H107.342V333.075H112.444V334.241ZM108.474 338.561H114.97V341.981H113.5V339.734H108.474V338.561ZM112.187 334.783H113.5V332.587H114.97V338.174H113.5V335.981H112.187V334.783ZM120.039 333.032C120.703 333.032 121.305 333.147 121.845 333.376C122.388 333.602 122.817 333.923 123.133 334.338C123.449 334.753 123.607 335.228 123.607 335.764C123.607 336.307 123.449 336.787 123.133 337.204C122.82 337.621 122.391 337.945 121.849 338.174C121.306 338.401 120.703 338.514 120.039 338.514C119.376 338.514 118.773 338.401 118.23 338.174C117.69 337.945 117.264 337.621 116.953 337.204C116.641 336.787 116.486 336.307 116.486 335.764C116.486 335.228 116.641 334.753 116.953 334.338C117.264 333.923 117.69 333.602 118.23 333.376C118.773 333.147 119.376 333.032 120.039 333.032ZM115.762 339.686H124.342V340.873H115.762V339.686ZM117.919 335.764C117.919 336.087 118.008 336.365 118.187 336.596C118.365 336.828 118.615 337.004 118.936 337.125C119.256 337.245 119.624 337.307 120.039 337.309C120.452 337.307 120.816 337.245 121.132 337.125C121.451 337.004 121.699 336.828 121.878 336.596C122.056 336.365 122.145 336.087 122.145 335.764C122.145 335.448 122.055 335.173 121.874 334.939C121.695 334.705 121.447 334.526 121.128 334.403C120.812 334.278 120.449 334.216 120.039 334.219C119.627 334.216 119.26 334.278 118.939 334.403C118.618 334.526 118.368 334.705 118.187 334.939C118.008 335.173 117.919 335.448 117.919 335.764ZM133.084 340.971H124.505V339.773H128.047V338.467H125.464V335.228H130.671V334.345H125.453V333.173H132.129V336.372H126.936V337.276H132.342V338.467H129.505V339.773H133.084V340.971ZM143.389 341.981H141.981V337.251H141.261V341.579H139.901V332.833H141.261V336.072H141.981V332.587H143.389V341.981ZM135.121 339.06C135.724 338.701 136.221 338.316 136.612 337.906C137.002 337.494 137.304 337.042 137.516 336.553C137.728 336.063 137.866 335.513 137.929 334.903H135.631V333.73H139.365C139.365 334.676 139.262 335.528 139.054 336.285C138.847 337.042 138.493 337.738 137.994 338.373C137.494 339.007 136.819 339.574 135.967 340.074L135.121 339.06ZM145.716 334.056H147.38V333.021H148.857V337.121H144.258V333.021H145.716V334.056ZM145.191 337.664H151.498V340.305H146.657V340.776H151.744V341.926H145.202V339.263H150.026V338.793H145.191V337.664ZM147.38 335.974V335.156H145.716V335.974H147.38ZM150.018 332.587H151.498V334.349H152.714V335.536H151.498V337.345H150.018V332.587ZM158.341 337.504H156.593V338.948C157.358 338.917 158.072 338.869 158.736 338.804L158.844 339.867C158.212 339.966 157.563 340.04 156.897 340.088C156.234 340.134 155.609 340.163 155.023 340.175C154.439 340.187 153.75 340.194 152.957 340.197L152.794 339.003L153.539 339.006C154.113 339.006 154.641 339.001 155.121 338.992V337.504H153.38V333.408H158.294V334.566H154.846V336.325H158.341V337.504ZM159.239 332.587H160.704V342.006H159.239V332.587ZM165.133 338.489C165.131 338.887 165.21 339.262 165.372 339.614C165.534 339.966 165.787 340.27 166.132 340.526C166.472 340.261 166.723 339.948 166.885 339.589C167.049 339.229 167.133 338.863 167.138 338.489V338.174H168.589V338.489C168.589 339.022 168.728 339.491 169.005 339.896C169.283 340.299 169.726 340.592 170.337 340.776L169.595 341.854C168.763 341.567 168.175 341.046 167.833 340.291C167.664 340.665 167.438 340.993 167.156 341.275C166.876 341.56 166.534 341.78 166.128 341.937C165.718 341.788 165.372 341.575 165.09 341.3C164.808 341.025 164.586 340.702 164.424 340.331C164.253 340.68 164.024 340.984 163.736 341.242C163.449 341.503 163.102 341.707 162.694 341.854L161.985 340.776C162.386 340.645 162.712 340.463 162.966 340.229C163.221 339.993 163.407 339.726 163.523 339.43C163.639 339.133 163.698 338.819 163.7 338.489V338.174H165.133V338.489ZM161.601 335.319C161.601 334.892 161.711 334.506 161.931 334.161C162.15 333.816 162.453 333.546 162.839 333.35C163.225 333.153 163.654 333.054 164.127 333.054C164.513 333.054 164.873 333.124 165.206 333.264C165.538 333.401 165.821 333.596 166.052 333.85C166.286 334.101 166.45 334.389 166.544 334.715H167.985V332.587H169.454V337.823H167.985V335.901H166.552C166.46 336.237 166.297 336.532 166.063 336.788C165.832 337.044 165.548 337.243 165.213 337.385C164.877 337.525 164.516 337.595 164.127 337.595C163.652 337.595 163.221 337.497 162.835 337.302C162.452 337.106 162.15 336.836 161.931 336.491C161.711 336.144 161.601 335.753 161.601 335.319ZM163.013 335.319C163.013 335.536 163.06 335.724 163.154 335.883C163.248 336.043 163.379 336.164 163.548 336.249C163.717 336.333 163.91 336.374 164.127 336.372C164.34 336.374 164.528 336.333 164.692 336.249C164.858 336.164 164.988 336.043 165.083 335.883C165.179 335.724 165.227 335.536 165.227 335.319C165.227 335.099 165.18 334.911 165.086 334.754C164.992 334.598 164.862 334.479 164.695 334.4C164.529 334.318 164.34 334.277 164.127 334.277C163.91 334.277 163.717 334.318 163.548 334.4C163.379 334.479 163.248 334.598 163.154 334.754C163.06 334.911 163.013 335.099 163.013 335.319ZM174.523 333.032C175.187 333.032 175.789 333.147 176.329 333.376C176.872 333.602 177.301 333.923 177.617 334.338C177.933 334.753 178.091 335.228 178.091 335.764C178.091 336.307 177.933 336.787 177.617 337.204C177.304 337.621 176.875 337.945 176.333 338.174C175.79 338.401 175.187 338.514 174.523 338.514C173.86 338.514 173.257 338.401 172.714 338.174C172.174 337.945 171.748 337.621 171.437 337.204C171.126 336.787 170.97 336.307 170.97 335.764C170.97 335.228 171.126 334.753 171.437 334.338C171.748 333.923 172.174 333.602 172.714 333.376C173.257 333.147 173.86 333.032 174.523 333.032ZM170.246 339.686H178.826V340.873H170.246V339.686ZM172.403 335.764C172.403 336.087 172.492 336.365 172.671 336.596C172.849 336.828 173.099 337.004 173.42 337.125C173.741 337.245 174.108 337.307 174.523 337.309C174.936 337.307 175.3 337.245 175.616 337.125C175.935 337.004 176.183 336.828 176.362 336.596C176.54 336.365 176.629 336.087 176.629 335.764C176.629 335.448 176.539 335.173 176.358 334.939C176.18 334.705 175.931 334.526 175.613 334.403C175.297 334.278 174.934 334.216 174.523 334.219C174.111 334.216 173.744 334.278 173.423 334.403C173.103 334.526 172.852 334.705 172.671 334.939C172.492 335.173 172.403 335.448 172.403 335.764ZM183.885 334.675H185.491V332.587H186.95V342.006H185.491V338.369H183.885V339.715H179.318V333.394H183.885V334.675ZM182.445 338.579V334.534H180.787V338.579H182.445ZM185.491 337.204V335.854H183.885V337.204H185.491ZM188.929 343.171H187.739L188.223 340.215H189.841L188.929 343.171ZM29.9609 349.625H23.2918V345.996H24.7682V348.453H29.9609V349.625ZM22.2497 350.588H30.8293V351.782H27.2325V354.981H25.7452V351.782H22.2497V350.588ZM38.5876 346.973C38.5876 347.366 38.5839 347.705 38.5767 347.99C38.5695 348.274 38.549 348.596 38.5152 348.956C38.4814 349.315 38.4283 349.696 38.356 350.099H39.5537V351.286H35.9641V354.988H34.4769V351.286H30.9922V350.099H36.8687C36.9676 349.583 37.0328 349.109 37.0641 348.677C37.0979 348.243 37.1172 347.778 37.122 347.284H31.9402V346.122H38.5876V346.973ZM48.4446 350.287H47.1781V354.955H45.7053V345.587H47.1781V349.09H48.4446V350.287ZM40.0025 346.481H41.468V351.474C42.7465 351.445 43.9756 351.314 45.1553 351.08L45.3073 352.303C44.5836 352.448 43.8502 352.549 43.1072 352.607C42.3666 352.665 41.6091 352.692 40.8347 352.69H40.0025V346.481ZM54.0634 348.044C54.061 348.538 54.1382 349.03 54.295 349.52C54.4542 350.01 54.7027 350.46 55.0404 350.87C55.3805 351.28 55.8051 351.601 56.3141 351.832L55.5 352.987C55.0006 352.762 54.57 352.44 54.2081 352.021C53.8463 351.598 53.558 351.109 53.3433 350.552C53.1286 351.169 52.8343 351.709 52.4604 352.173C52.0864 352.636 51.6389 352.988 51.1179 353.229L50.2675 352.068C50.7862 351.826 51.218 351.491 51.563 351.062C51.9079 350.632 52.1612 350.157 52.3229 349.636C52.4869 349.113 52.5701 348.582 52.5725 348.044V347.675H50.6511V346.477H55.8799V347.675H54.0634V348.044ZM56.477 345.587H57.9497V349.104H59.2814V350.327H57.9497V354.981H56.477V345.587ZM67.8212 351.956H65.8889V354.981H64.3981V351.956H62.625V354.981H61.1196V351.956H59.238V350.776H67.8212V351.956ZM60.063 348.026C60.0606 347.599 60.2041 347.224 60.4936 346.9C60.7831 346.575 61.1884 346.324 61.7095 346.148C62.2329 345.972 62.83 345.884 63.5006 345.884C64.1737 345.884 64.772 345.972 65.2955 346.148C65.8214 346.324 66.2303 346.575 66.5222 346.9C66.8165 347.224 66.9636 347.599 66.9636 348.026C66.9636 348.443 66.8165 348.81 66.5222 349.126C66.2303 349.439 65.8214 349.682 65.2955 349.853C64.772 350.024 64.1737 350.11 63.5006 350.11C62.8276 350.11 62.2305 350.024 61.7095 349.853C61.1884 349.682 60.7831 349.439 60.4936 349.126C60.2041 348.81 60.0606 348.443 60.063 348.026ZM61.5792 348.026C61.5768 348.325 61.7444 348.554 62.0822 348.713C62.4223 348.87 62.8951 348.95 63.5006 348.952C64.1134 348.95 64.5886 348.87 64.9264 348.713C65.2665 348.554 65.4378 348.325 65.4402 348.026C65.4378 347.71 65.2677 347.47 64.93 347.306C64.5922 347.142 64.1158 347.058 63.5006 347.056C62.8927 347.058 62.4199 347.142 62.0822 347.306C61.7444 347.47 61.5768 347.71 61.5792 348.026ZM76.5637 351.362H67.9805V350.211H71.5448V349.745H69.0335V347.197H74.0705V346.832H69.0226V345.713H75.5469V348.232H70.4954V348.637H75.7097V349.745H73.0067V350.211H76.5637V351.362ZM69.0443 351.67H70.5026V352.18H74.1357V351.67H75.5831V354.883H69.0443V351.67ZM74.1357 353.754V353.265H70.5026V353.754H74.1357ZM84.8973 354.981H83.5114V345.587H84.8973V354.981ZM76.5782 352.017C77.191 351.655 77.6928 351.268 78.0836 350.855C78.4768 350.443 78.7771 349.993 78.9846 349.506C79.192 349.016 79.3259 348.466 79.3862 347.856H77.1319V346.68H80.8481C80.8481 347.604 80.7541 348.423 80.5659 349.137H81.514V345.789H82.889V354.583H81.514V350.302H80.1317C79.8615 350.847 79.5032 351.348 79.057 351.804C78.6107 352.257 78.0594 352.672 77.4033 353.048L76.5782 352.017ZM95.394 355.006H93.9031V345.587H95.394V355.006ZM87.7515 349.589C87.7515 348.916 87.8589 348.326 88.0736 347.819C88.2883 347.31 88.5862 346.918 88.9674 346.643C89.3509 346.368 89.784 346.231 90.2664 346.231C90.7417 346.231 91.1675 346.368 91.5438 346.643C91.9225 346.918 92.2193 347.31 92.434 347.819C92.6511 348.328 92.7596 348.918 92.7596 349.589C92.7596 350.272 92.6511 350.869 92.434 351.38C92.2193 351.892 91.9225 352.285 91.5438 352.56C91.1675 352.835 90.7417 352.972 90.2664 352.972C89.784 352.972 89.3509 352.835 88.9674 352.56C88.5862 352.285 88.2883 351.892 88.0736 351.38C87.8589 350.869 87.7515 350.272 87.7515 349.589ZM89.1773 349.589C89.1748 350.035 89.2171 350.412 89.3039 350.718C89.3932 351.022 89.5198 351.251 89.6839 351.405C89.8479 351.557 90.0421 351.633 90.2664 351.633C90.4811 351.633 90.6681 351.557 90.8273 351.405C90.989 351.251 91.1144 351.022 91.2037 350.718C91.2929 350.412 91.3375 350.035 91.3375 349.589C91.3375 349.15 91.2929 348.778 91.2037 348.474C91.1144 348.17 90.989 347.943 90.8273 347.791C90.6681 347.636 90.4811 347.56 90.2664 347.563C90.0445 347.56 89.8515 347.636 89.6875 347.791C89.5234 347.943 89.3968 348.17 89.3075 348.474C89.2183 348.778 89.1748 349.15 89.1773 349.589ZM104.81 351.152H96.248V349.98H98.1115V348.912C97.7738 348.758 97.5157 348.565 97.3372 348.333C97.1587 348.102 97.0706 347.839 97.073 347.544C97.073 347.171 97.2129 346.846 97.4928 346.571C97.775 346.296 98.1767 346.085 98.6978 345.938C99.2188 345.788 99.828 345.713 100.525 345.713C101.217 345.713 101.822 345.788 102.338 345.938C102.857 346.085 103.257 346.296 103.539 346.571C103.824 346.846 103.966 347.171 103.966 347.544C103.964 347.846 103.87 348.114 103.684 348.348C103.498 348.582 103.231 348.777 102.881 348.934V349.98H104.81V351.152ZM97.2069 353.262C97.2069 352.9 97.3384 352.592 97.6013 352.339C97.8643 352.083 98.2418 351.89 98.7339 351.76C99.2285 351.63 99.8195 351.565 100.507 351.565C101.185 351.565 101.77 351.631 102.262 351.764C102.754 351.894 103.132 352.087 103.395 352.343C103.658 352.596 103.789 352.902 103.789 353.262C103.789 353.628 103.658 353.94 103.395 354.195C103.132 354.451 102.754 354.644 102.262 354.774C101.772 354.907 101.187 354.972 100.507 354.97C99.8195 354.972 99.2285 354.907 98.7339 354.774C98.2394 354.644 97.8607 354.451 97.5977 354.195C97.3372 353.94 97.2069 353.628 97.2069 353.262ZM98.6037 347.544C98.6013 347.776 98.7605 347.949 99.0813 348.062C99.4046 348.173 99.8858 348.228 100.525 348.228C101.804 348.228 102.443 348 102.443 347.544C102.443 347.313 102.283 347.139 101.962 347.023C101.641 346.905 101.172 346.846 100.554 346.846C99.2466 346.846 98.5964 347.079 98.6037 347.544ZM98.7086 353.262C98.7062 353.474 98.8509 353.631 99.1428 353.732C99.4371 353.831 99.8919 353.881 100.507 353.881C101.115 353.881 101.567 353.83 101.864 353.729C102.161 353.627 102.31 353.472 102.313 353.262C102.31 353.059 102.162 352.911 101.868 352.817C101.573 352.723 101.12 352.674 100.507 352.672C99.8871 352.674 99.4311 352.723 99.1392 352.817C98.8497 352.908 98.7062 353.057 98.7086 353.262ZM101.415 349.98V349.289C101.138 349.318 100.841 349.332 100.525 349.332C100.19 349.332 99.8822 349.316 99.6024 349.285V349.98H101.415ZM112.434 349.205H113.766V350.414H112.434V354.981H110.979V345.587H112.434V349.205ZM104.94 346.958H106.97V345.746H108.439V346.958H110.433V348.131H104.94V346.958ZM105.269 350.837C105.269 350.403 105.374 350.015 105.584 349.672C105.794 349.327 106.083 349.058 106.452 348.865C106.824 348.67 107.241 348.572 107.704 348.572C108.158 348.572 108.569 348.67 108.938 348.865C109.307 349.058 109.598 349.327 109.81 349.672C110.023 350.017 110.13 350.406 110.132 350.837C110.13 351.272 110.023 351.661 109.81 352.006C109.598 352.349 109.307 352.618 108.938 352.813C108.569 353.006 108.158 353.103 107.704 353.103C107.241 353.103 106.824 353.006 106.452 352.813C106.083 352.62 105.794 352.352 105.584 352.01C105.374 351.665 105.269 351.274 105.269 350.837ZM106.68 350.837C106.68 351.062 106.723 351.255 106.807 351.416C106.894 351.576 107.014 351.697 107.169 351.782C107.326 351.864 107.504 351.905 107.704 351.905C107.902 351.905 108.077 351.864 108.229 351.782C108.381 351.697 108.5 351.576 108.587 351.416C108.674 351.255 108.719 351.062 108.721 350.837C108.719 350.618 108.674 350.427 108.587 350.266C108.5 350.104 108.38 349.981 108.225 349.897C108.074 349.81 107.9 349.765 107.704 349.763C107.504 349.765 107.326 349.81 107.169 349.897C107.014 349.981 106.894 350.104 106.807 350.266C106.723 350.427 106.68 350.618 106.68 350.837ZM121.607 350.305H120.141V345.587H121.607V350.305ZM113.65 349.22C114.166 349.073 114.589 348.858 114.92 348.576C115.253 348.291 115.495 347.97 115.647 347.613C115.799 347.256 115.876 346.883 115.879 346.495V345.779H117.413V346.495C117.411 346.876 117.481 347.236 117.623 347.573C117.768 347.911 118 348.213 118.321 348.478C118.645 348.741 119.06 348.942 119.566 349.082L118.85 350.215C118.333 350.07 117.892 349.854 117.525 349.567C117.161 349.278 116.87 348.93 116.653 348.525C116.431 348.969 116.13 349.35 115.749 349.669C115.37 349.985 114.913 350.219 114.377 350.371L113.65 349.22ZM115.26 350.696H121.621V353.327H116.718V353.776H121.849V354.926H115.282V352.252H120.149V351.825H115.26V350.696ZM129.567 346.274C129.565 346.643 129.678 347.009 129.907 347.371C130.139 347.73 130.497 348.045 130.982 348.315C131.469 348.583 132.076 348.76 132.802 348.847L132.23 350.03C131.415 349.917 130.715 349.691 130.132 349.354C129.55 349.014 129.103 348.591 128.789 348.087C128.473 348.589 128.025 349.01 127.447 349.35C126.868 349.69 126.176 349.917 125.373 350.03L124.801 348.847C125.518 348.76 126.117 348.582 126.6 348.312C127.082 348.041 127.438 347.727 127.667 347.367C127.896 347.008 128.012 346.643 128.015 346.274V345.847H129.567V346.274ZM124.505 350.635H133.066V351.832H129.487V354.981H128.025V351.832H124.505V350.635ZM138.768 351.525C138.768 351.916 138.848 352.285 139.007 352.632C139.169 352.977 139.42 353.271 139.76 353.515C140.107 353.262 140.365 352.959 140.534 352.607C140.705 352.255 140.793 351.894 140.798 351.525V351.264H142.249V351.525C142.244 352.056 142.38 352.519 142.655 352.914C142.93 353.308 143.366 353.595 143.964 353.776L143.252 354.84C142.417 354.567 141.825 354.053 141.475 353.298C141.311 353.67 141.089 353.995 140.809 354.275C140.532 354.555 140.194 354.771 139.796 354.923C138.988 354.633 138.412 354.103 138.07 353.331C137.899 353.68 137.668 353.983 137.379 354.239C137.092 354.497 136.743 354.697 136.333 354.84L135.616 353.776C136.203 353.575 136.633 353.275 136.908 352.875C137.186 352.474 137.327 352.024 137.332 351.525V351.264H138.768V351.525ZM135.392 348.333C135.392 347.894 135.505 347.502 135.732 347.157C135.959 346.81 136.27 346.54 136.666 346.347C137.064 346.151 137.507 346.054 137.994 346.054C138.481 346.054 138.923 346.151 139.318 346.347C139.714 346.54 140.025 346.81 140.252 347.157C140.479 347.502 140.592 347.894 140.592 348.333C140.592 348.763 140.479 349.15 140.252 349.495C140.025 349.837 139.713 350.106 139.315 350.302C138.919 350.497 138.479 350.595 137.994 350.595C137.507 350.595 137.064 350.497 136.666 350.302C136.27 350.106 135.959 349.837 135.732 349.495C135.505 349.15 135.392 348.763 135.392 348.333ZM136.832 348.333C136.832 348.548 136.881 348.734 136.977 348.891C137.076 349.047 137.212 349.168 137.386 349.252C137.562 349.334 137.765 349.374 137.994 349.372C138.216 349.374 138.412 349.334 138.584 349.252C138.757 349.168 138.892 349.047 138.989 348.891C139.085 348.734 139.134 348.548 139.134 348.333C139.134 348.114 139.085 347.926 138.989 347.769C138.892 347.61 138.757 347.49 138.584 347.411C138.412 347.329 138.216 347.288 137.994 347.288C137.765 347.288 137.562 347.329 137.386 347.411C137.21 347.49 137.073 347.608 136.977 347.765C136.881 347.922 136.832 348.111 136.832 348.333ZM141.685 345.601H143.165V350.884H141.685V345.601ZM146.443 351.923H150.044V351.221H151.506V354.883H144.989V351.221H146.443V351.923ZM144.019 349.632H152.58V350.805H144.019V349.632ZM144.413 348.149C145.12 348.067 145.706 347.912 146.172 347.686C146.64 347.456 146.984 347.191 147.203 346.89C147.425 346.586 147.537 346.274 147.54 345.956V345.685H149.059V345.956C149.057 346.267 149.164 346.576 149.381 346.882C149.601 347.186 149.945 347.454 150.413 347.686C150.881 347.915 151.467 348.069 152.171 348.149L151.658 349.299C150.859 349.201 150.175 349.003 149.606 348.706C149.039 348.407 148.602 348.035 148.296 347.592C147.985 348.035 147.546 348.407 146.979 348.706C146.414 349.003 145.736 349.201 144.945 349.299L144.413 348.149ZM150.044 353.729V353.03H146.443V353.729H150.044ZM160.7 354.981H159.231V345.587H160.7V354.981ZM153.228 346.481H154.69V351.438C156.019 351.412 157.303 351.28 158.54 351.044L158.721 352.256C157.31 352.553 155.761 352.699 154.075 352.694H153.228V346.481ZM168.947 349.003H170.279V350.201H168.947V355.006H167.474V345.587H168.947V349.003ZM161.862 346.444H166.269V347.635H163.328V351.536C163.998 351.529 164.615 351.503 165.177 351.46C165.739 351.416 166.303 351.346 166.87 351.25L167.026 352.477C166.384 352.585 165.746 352.658 165.111 352.694C164.477 352.73 163.734 352.748 162.882 352.748H162.665H161.862V346.444ZM171.524 354.101C171.355 354.101 171.199 354.06 171.057 353.978C170.915 353.894 170.801 353.782 170.717 353.642C170.635 353.499 170.595 353.344 170.597 353.175C170.595 353.011 170.635 352.859 170.717 352.719C170.801 352.577 170.915 352.465 171.057 352.382C171.202 352.3 171.357 352.259 171.524 352.259C171.685 352.259 171.837 352.302 171.98 352.386C172.122 352.468 172.235 352.579 172.32 352.719C172.407 352.859 172.45 353.011 172.45 353.175C172.45 353.341 172.407 353.496 172.32 353.638C172.235 353.78 172.122 353.894 171.98 353.978C171.837 354.06 171.685 354.101 171.524 354.101Z" fill="#212121"/>
<path d="M24.7734 308.821C24.7734 309.967 25.5222 311.151 26.5765 311.602L26.1792 312.167C25.3732 311.812 24.7314 311.059 24.4143 310.143C24.0973 311.12 23.4517 311.953 22.6571 312.343L22.2368 311.77C23.2683 311.289 24.0323 309.997 24.04 308.821V308.095H22.4737V307.491H26.332V308.095H24.7734V308.821ZM27.9212 306.804V313.649H27.1954V306.804H27.9212ZM34.3259 309.959V310.54H32.2554V312.213H35.0441V312.809H28.7791V312.213H31.5372V310.54H29.5584V307.331H34.2648V307.919H30.2842V309.959H34.3259ZM39.4492 308.546C39.4492 309.799 40.1521 311.044 41.1988 311.518L40.7557 312.098C39.9763 311.709 39.3919 310.933 39.0901 309.997C38.7883 310.983 38.1885 311.816 37.4016 312.228L36.9432 311.64C38.0052 311.136 38.7157 309.814 38.7157 308.546V307.377H39.4492V308.546ZM42.6886 306.804V313.665H41.9705V309.669H40.4424V309.081H41.9705V306.804H42.6886ZM49.1774 306.804V313.665H48.4515V306.804H49.1774ZM44.6161 307.377V309.134H46.4574V307.377H47.1756V312.022H43.8903V307.377H44.6161ZM44.6161 311.426H46.4574V309.707H44.6161V311.426ZM53.5116 307.774C53.5116 308.89 54.7034 309.944 56.0176 310.181L55.6814 310.784C54.5888 310.547 53.5803 309.829 53.1372 308.867C52.6864 309.822 51.6817 310.54 50.5853 310.784L50.2644 310.181C51.5633 309.936 52.7475 308.89 52.7475 307.774V307.255H53.5116V307.774ZM56.3003 312.144V312.748H50.0352V312.144H56.3003ZM64.1129 306.804V313.649H63.4176V306.804H64.1129ZM62.7224 306.949V313.306H62.0347V309.822H60.9727V309.226H62.0347V306.949H62.7224ZM60.3004 308.714C60.3004 309.883 60.7741 311.052 61.7368 311.609L61.3013 312.144C60.648 311.755 60.1972 311.063 59.9642 310.234C59.7159 311.128 59.2499 311.888 58.5813 312.305L58.1382 311.762C59.1085 311.174 59.6051 309.929 59.6051 308.714V308.164H58.3445V307.575H61.477V308.164H60.3004V308.714ZM67.1559 308.034C67.1559 308.905 67.7594 309.738 68.8062 310.089L68.4394 310.654C67.6639 310.387 67.0947 309.852 66.7968 309.18C66.4988 309.921 65.9067 310.502 65.1006 310.784L64.711 310.219C65.7806 309.852 66.4224 308.974 66.43 308.026V307.843H64.9249V307.255H68.6304V307.843H67.1559V308.034ZM70.1432 306.804V308.561H71.1364V309.172H70.1432V310.929H69.4174V306.804H70.1432ZM70.1432 311.266V313.649H69.4174V311.854H65.6202V311.266H70.1432ZM77.182 306.804V313.649H76.4868V306.804H77.182ZM75.7915 306.934V313.313H75.0962V310.013H74.3246C74.2635 311.35 73.6904 312.182 72.8424 312.175C71.9484 312.182 71.3678 311.243 71.3678 309.761C71.3678 308.278 71.9484 307.346 72.8424 307.354C73.6752 307.346 74.2405 308.137 74.3246 309.424H75.0962V306.934H75.7915ZM72.8424 308.034C72.3457 308.034 72.0401 308.668 72.0401 309.761C72.0401 310.853 72.3457 311.487 72.8424 311.487C73.3466 311.487 73.6599 310.853 73.6599 309.761C73.6599 308.668 73.3466 308.034 72.8424 308.034ZM85.3691 306.804V313.649H84.6738V310.112H83.7875V313.298H83.1228V306.941H83.7875V309.516H84.6738V306.804H85.3691ZM82.29 307.629V308.217H80.4487V311.388C81.2891 311.38 81.9233 311.342 82.6568 311.205L82.7102 311.8C81.8851 311.969 81.1822 311.999 80.1813 312.007H79.7229V307.629H82.29ZM89.4053 307.934V308.523H86.0053V307.934H87.35V307.002H88.0682V307.934H89.4053ZM87.7091 308.935C88.5801 308.935 89.1913 309.585 89.199 310.509C89.1913 311.441 88.5801 312.098 87.7091 312.098C86.8534 312.098 86.2193 311.441 86.2269 310.509C86.2193 309.585 86.8534 308.935 87.7091 308.935ZM87.7091 309.539C87.2125 309.539 86.8687 309.944 86.8687 310.509C86.8687 311.09 87.2125 311.48 87.7091 311.48C88.1981 311.48 88.5572 311.09 88.5572 310.509C88.5572 309.944 88.1981 309.539 87.7091 309.539ZM91.8807 306.804V313.649H91.1931V310.25H90.4061V313.329H89.7185V306.957H90.4061V309.654H91.1931V306.804H91.8807ZM99.6933 307.086V307.583C99.6933 308.099 99.6933 308.718 99.5329 309.508H100.488V310.089H97.6992V311.082C98.9752 311.155 99.7392 311.609 99.7392 312.351C99.7392 313.176 98.83 313.642 97.3401 313.634C95.8426 313.642 94.9335 313.176 94.9335 312.351C94.9335 311.609 95.6975 311.155 96.981 311.082V310.089H94.2229V309.508H98.8071C98.9675 308.741 98.9752 308.171 98.9752 307.667H95.0099V307.086H99.6933ZM97.3401 311.663C96.2781 311.663 95.6593 311.907 95.6669 312.351C95.6593 312.809 96.2781 313.053 97.3401 313.053C98.3869 313.053 99.0057 312.809 99.0134 312.351C99.0057 311.907 98.3869 311.663 97.3401 311.663ZM106.22 307.148V307.667C106.22 308.206 106.22 308.817 106.045 309.646H107.015V310.242H100.75V309.646H105.311C105.494 308.848 105.502 308.263 105.502 307.743H101.537V307.148H106.22ZM106.228 311.113V313.565H101.514V311.113H106.228ZM102.224 311.686V312.977H105.51V311.686H102.224ZM112.61 306.804V309.577H113.71V310.181H112.61V313.649H111.892V306.804H112.61ZM111.296 307.873V308.469H107.239V307.873H108.927V306.895H109.653V307.873H111.296ZM109.294 308.974C110.272 308.974 110.99 309.631 110.998 310.563C110.99 311.503 110.272 312.152 109.294 312.16C108.308 312.152 107.59 311.503 107.59 310.563C107.59 309.631 108.308 308.974 109.294 308.974ZM109.294 309.57C108.713 309.57 108.278 309.974 108.285 310.563C108.278 311.159 108.713 311.556 109.294 311.548C109.874 311.556 110.302 311.159 110.302 310.563C110.302 309.974 109.874 309.57 109.294 309.57ZM119.137 306.804V309.455H120.237V310.051H119.137V313.665H118.411V306.804H119.137ZM117.295 307.461V308.049H114.82V311.357C115.97 311.354 116.833 311.304 117.807 311.128L117.899 311.739C116.829 311.93 115.92 311.969 114.644 311.961H114.094V307.461H117.295ZM123.822 307.384V307.965H125.312V306.811H126.038V311.8H125.312V310.028H123.822V310.624H120.644V307.384H123.822ZM121.362 307.973V310.051H123.112V307.973H121.362ZM126.191 312.916V313.504H121.568V311.342H122.302V312.916H126.191ZM123.822 309.432H125.312V308.561H123.822V309.432ZM127.981 311.357C127.988 310.356 128.286 310.051 128.791 309.738C129.111 309.539 129.356 309.264 129.356 308.859C129.356 308.378 128.989 308.08 128.531 308.08C128.118 308.08 127.721 308.332 127.683 308.897H126.858C126.888 307.927 127.622 307.392 128.531 307.392C129.524 307.392 130.189 307.988 130.189 308.859C130.189 309.47 129.898 309.883 129.409 310.181C128.951 310.456 128.775 310.738 128.76 311.357V311.403H127.981V311.357ZM128.401 313.053C128.103 313.053 127.851 312.809 127.858 312.511C127.851 312.213 128.103 311.969 128.401 311.969C128.691 311.969 128.943 312.213 128.943 312.511C128.943 312.809 128.691 313.053 128.401 313.053Z" fill="#212121"/>
<path d="M36.8269 319.982C36.7505 319.654 36.4907 319.44 36.04 319.44C35.5739 319.44 35.2377 319.684 35.2454 319.997C35.2377 320.242 35.4364 320.418 35.8948 320.525L36.5519 320.677C37.3159 320.845 37.6826 321.212 37.6903 321.8C37.6826 322.549 37.0561 323.084 35.9941 323.084C35.0009 323.084 34.4049 322.641 34.3056 321.869H35.1384C35.2072 322.244 35.4975 322.427 35.9865 322.427C36.5137 322.427 36.8498 322.213 36.8575 321.862C36.8498 321.594 36.6512 321.418 36.2157 321.319L35.5663 321.182C34.8175 321.014 34.4279 320.616 34.4279 320.043C34.4279 319.302 35.0696 318.798 36.0323 318.798C36.9568 318.798 37.5298 319.272 37.6139 319.982H36.8269ZM40.886 321.273V318.851H41.6959V323H40.9013V322.282H40.8555C40.6645 322.725 40.2366 323.053 39.6177 323.053C38.8155 323.053 38.2501 322.519 38.2501 321.487V318.851H39.0676V321.388C39.0676 321.953 39.4115 322.312 39.9081 322.312C40.3588 322.312 40.886 321.984 40.886 321.273ZM42.5232 323V317.468H43.3331V319.524H43.3789C43.5317 319.264 43.8068 318.798 44.5708 318.798C45.5717 318.798 46.3204 319.585 46.3204 320.937C46.3204 322.274 45.5869 323.084 44.5784 323.084C43.822 323.084 43.5317 322.626 43.3789 322.351H43.3178V323H42.5232ZM43.3178 320.922C43.3178 321.793 43.7074 322.389 44.3951 322.389C45.1132 322.389 45.4876 321.755 45.4876 320.922C45.4876 320.104 45.1209 319.493 44.3951 319.493C43.6998 319.493 43.3178 320.058 43.3178 320.922ZM46.8956 323V318.851H47.7131V323H46.8956ZM47.3081 318.21C47.0254 318.21 46.7886 317.996 46.7886 317.728C46.7886 317.461 47.0254 317.247 47.3081 317.247C47.5832 317.247 47.82 317.461 47.82 317.728C47.82 317.996 47.5832 318.21 47.3081 318.21ZM49.2891 320.54V323H48.4716V318.851H49.2585V319.531H49.3044C49.503 319.088 49.908 318.798 50.5268 318.798C51.3825 318.798 51.9403 319.333 51.9403 320.364V323H51.1304V320.463C51.1304 319.86 50.8019 319.501 50.2518 319.501C49.694 319.501 49.2891 319.875 49.2891 320.54ZM53.2336 323.053C52.9357 323.053 52.6835 322.809 52.6912 322.511C52.6835 322.213 52.9357 321.969 53.2336 321.969C53.524 321.969 53.7761 322.213 53.7761 322.511C53.7761 322.809 53.524 323.053 53.2336 323.053ZM54.527 323V318.851H55.3445V323H54.527ZM54.9396 318.21C54.6569 318.21 54.42 317.996 54.42 317.728C54.42 317.461 54.6569 317.247 54.9396 317.247C55.2146 317.247 55.4514 317.461 55.4514 317.728C55.4514 317.996 55.2146 318.21 54.9396 318.21ZM57.8603 323.084C56.6837 323.084 55.9196 322.228 55.9196 320.945C55.9196 319.654 56.6837 318.798 57.8603 318.798C59.0292 318.798 59.7933 319.654 59.7933 320.945C59.7933 322.228 59.0292 323.084 57.8603 323.084ZM57.8603 322.404C58.609 322.404 58.9681 321.739 58.9681 320.945C58.9681 320.15 58.609 319.47 57.8603 319.47C57.0962 319.47 56.7372 320.15 56.7372 320.945C56.7372 321.739 57.0962 322.404 57.8603 322.404Z" fill="#212121"/>
<path d="M34.3314 58.5029C34.3314 62.4235 31.7667 65.1027 27.3232 66.2462L26.5228 64.6289C29.8635 63.7794 31.7667 62.1213 32.0934 60.1201H27.3886V58.5029H34.3314ZM38.8892 57.6534V65.9521H36.7982V57.6534H38.8892ZM38.8892 66.5566V72.3232H28.9732V66.5566H38.8892ZM31.0479 68.1902V70.6896H36.8472V68.1902H31.0479ZM53.2533 57.637V72.5029H51.2766V57.637H53.2533ZM50.2147 57.8821V71.8168H48.2544V64.4165H46.2941V62.7339H48.2544V57.8821H50.2147ZM45.1015 61.6231C45.1015 64.0898 45.8693 66.5892 48.042 67.8308L46.8168 69.3664C45.4936 68.5823 44.6196 67.2509 44.1214 65.6581C43.6068 67.3897 42.7083 68.86 41.3442 69.6931L40.0863 68.1575C42.2754 66.8179 43.0922 64.1388 43.0922 61.6231V60.8226H40.6581V59.1563H47.3559V60.8226H45.1015V61.6231ZM60.1354 61.0023C60.1354 63.7304 61.3769 66.4749 63.8927 67.5367L62.6675 69.203C60.9685 68.4352 59.7923 66.9568 59.1225 65.119C58.4446 67.1202 57.2275 68.7374 55.4142 69.5624L54.1563 67.8308C56.7538 66.7363 58.0117 63.8938 58.028 61.0023V58.7806H60.1354V61.0023ZM66.8005 57.637V72.5356H64.6931V57.637H66.8005ZM30.6721 78.0781C32.9265 78.0781 34.6418 79.483 34.6418 81.476C34.6418 83.4364 32.9265 84.8576 30.6721 84.8576C28.3687 84.8576 26.6698 83.4364 26.6698 81.476C26.6698 79.483 28.3687 78.0781 30.6721 78.0781ZM30.6721 79.7771C29.5286 79.7771 28.6791 80.3978 28.6955 81.476C28.6791 82.5379 29.5286 83.175 30.6721 83.175C31.7993 83.175 32.6325 82.5379 32.6325 81.476C32.6325 80.3978 31.7993 79.7771 30.6721 79.7771ZM38.8892 77.637V85.0863H36.7982V77.637H38.8892ZM38.8892 85.7071V89.7421H30.9825V90.7059H39.2976V92.3396H28.9405V88.2229H36.8145V87.308H28.9078V85.7071H38.8892ZM45.8203 79.9731C45.8203 81.7701 46.8658 83.5017 49.2182 84.2368L48.1074 85.8541C46.5309 85.3314 45.4282 84.3185 44.7911 83.0116C44.1459 84.5146 42.9942 85.6908 41.2952 86.2625L40.168 84.6289C42.6511 83.7958 43.713 81.8191 43.7293 79.7771V78.4212H45.8203V79.9731ZM52.1914 77.637V81.1166H54.2008V82.8483H52.1914V86.4586H50.1004V77.637H52.1914ZM47.3232 86.7526C50.3944 86.7526 52.3384 87.8145 52.3384 89.6278C52.3384 91.4574 50.3944 92.5029 47.3232 92.5029C44.1867 92.5029 42.2264 91.4574 42.2264 89.6278C42.2264 87.8145 44.1867 86.7526 47.3232 86.7526ZM47.3232 88.3862C45.3629 88.3862 44.3011 88.811 44.3174 89.6278C44.3011 90.4772 45.3629 90.8693 47.3232 90.8693C49.2509 90.8693 50.2801 90.4772 50.2801 89.6278C50.2801 88.811 49.2509 88.3862 47.3232 88.3862ZM66.8495 77.637V92.5029H64.7748V77.637H66.8495ZM54.4177 88.3045C55.5531 88.2964 56.8518 88.2964 58.2077 88.2555V86.9976C56.5741 86.7118 55.5122 85.6989 55.5286 84.3022C55.5122 82.6359 57.0315 81.5087 59.2205 81.5087C61.4259 81.5087 62.9615 82.6359 62.9615 84.3022C62.9615 85.6908 61.8997 86.7036 60.266 86.9976V88.1902C61.5076 88.133 62.7655 88.035 63.958 87.8798L64.105 89.4154C60.8541 89.9708 57.3419 90.0035 54.6954 90.0035L54.4177 88.3045ZM63.7456 79.287V80.9206H54.7118V79.287H58.2077V77.7024H60.2824V79.287H63.7456ZM59.2205 83.0933C58.2077 83.0933 57.4889 83.5344 57.5052 84.3022C57.4889 85.0863 58.2077 85.5111 59.2205 85.5111C60.266 85.5111 60.9685 85.0863 60.9685 84.3022C60.9685 83.5344 60.266 83.0933 59.2205 83.0933ZM81.867 85.0046V86.6873H68.308V85.0046H74.0256V83.7468H70.0396V77.9964H72.098V79.3523H78.0607V77.9964H80.1354V83.7468H76.1167V85.0046H81.867ZM80.217 87.7001V92.5029H78.1424V89.35H69.8109V87.7001H80.217ZM72.098 82.1131H78.0607V80.8879H72.098V82.1131ZM88.0303 81.6884C88.0303 84.0898 89.2555 86.6546 91.7549 87.7001L90.6277 89.3337C88.8716 88.5904 87.6627 87.112 87.0011 85.2987C86.3232 87.2672 85.0898 88.9008 83.3418 89.7094L82.1493 88.0595C84.616 86.965 85.8903 84.2042 85.8903 81.6884V80.7736H82.7374V79.0746H91.1342V80.7736H88.0303V81.6884ZM94.7118 77.637V92.5029H92.6044V77.637H94.7118ZM108.814 77.6534V88.8763H106.723V87.7001H103.881V86.2789H106.723V77.6534H108.814ZM109.141 90.5753V92.2415H98.0653V87.7981H100.14V85.8214C98.8086 85.8786 97.5425 85.8868 96.4153 85.8868L96.1703 84.2368C98.8984 84.2205 102.574 84.1878 105.711 83.7958L105.825 85.2823C104.649 85.4784 103.432 85.6172 102.231 85.7071V88.5332H100.14V90.5753H109.141ZM101.006 78.1598C103.162 78.1435 104.714 79.238 104.714 80.8226C104.714 82.4072 103.162 83.4364 101.006 83.4364C98.8004 83.4364 97.2648 82.4072 97.2648 80.8226C97.2648 79.238 98.784 78.1435 101.006 78.1598ZM101.006 79.6791C99.9439 79.6791 99.2251 80.0875 99.2415 80.8226C99.2251 81.5414 99.9439 81.9334 101.006 81.9334C102.002 81.9334 102.721 81.5414 102.737 80.8226C102.721 80.0875 102.002 79.6791 101.006 79.6791ZM122.166 78.3068V79.4994C122.166 80.6592 122.166 81.9498 121.823 83.6487H123.783V85.3314H110.175V83.6487H119.715C120.042 82.1621 120.083 81.0104 120.091 79.9731H111.841V78.3068H122.166ZM122.117 86.8996V92.3396H111.792V86.8996H122.117ZM113.834 88.5332V90.6733H120.042V88.5332H113.834ZM132.957 81.0023C132.94 83.6651 134.084 86.3605 136.469 87.5041L135.211 89.1704C133.618 88.3862 132.548 86.916 131.927 85.119C131.282 87.0467 130.13 88.6231 128.448 89.4481L127.157 87.7654C129.673 86.6056 130.866 83.7631 130.866 81.0023V78.7806H132.957V81.0023ZM139.213 77.637V83.371H141.402V85.1353H139.213V92.5029H137.122V77.637H139.213ZM154.999 84.6779V86.3442H141.44V84.6779H144.495V82.8973C143.408 82.4154 142.796 81.6802 142.796 80.7246C142.796 78.9276 144.903 77.8494 148.219 77.8494C151.503 77.8494 153.61 78.9276 153.626 80.7246C153.618 81.6884 152.981 82.4399 151.878 82.9136V84.6779H154.999ZM148.203 87.1283C151.421 87.1283 153.365 88.0758 153.381 89.7911C153.365 91.5391 151.421 92.4866 148.203 92.4866C144.936 92.4866 142.992 91.5391 142.992 89.7911C142.992 88.0758 144.936 87.1283 148.203 87.1283ZM148.203 88.6966C146.144 88.6966 145.099 89.056 145.115 89.7911C145.099 90.5589 146.144 90.9347 148.203 90.9347C150.212 90.9347 151.274 90.5589 151.29 89.7911C151.274 89.056 150.212 88.6966 148.203 88.6966ZM148.219 79.4503C146.112 79.4503 144.952 79.8914 144.968 80.7246C144.952 81.5414 146.112 81.9498 148.219 81.9498C150.294 81.9498 151.47 81.5414 151.47 80.7246C151.47 79.8914 150.294 79.4503 148.219 79.4503ZM146.602 84.6779H149.804V83.4364C149.314 83.4935 148.783 83.518 148.219 83.518C147.639 83.518 147.1 83.4935 146.602 83.42V84.6779ZM167.958 77.637V92.5356H165.867V85.021H163.188V83.3547H165.867V77.637H167.958ZM160.966 82.2928C160.966 84.4492 162.142 86.8506 164.576 87.8961L163.465 89.4971C161.775 88.7946 160.598 87.3734 159.953 85.6744C159.3 87.4796 158.132 88.9988 156.424 89.7258L155.33 88.1248C157.715 87.063 158.875 84.5309 158.891 82.2928V81.7211H155.804V80.0548H158.891V77.9638H160.982V80.0548H163.988V81.7211H160.966V82.2928ZM182.943 84.3022V85.8541H169.335V84.3022H182.943ZM181.309 86.5892V90.1015H172.978V90.951H181.75V92.3722H170.903V88.7783H179.251V88.0268H170.887V86.5892H181.309ZM181.293 77.8984V81.3943H173.108V82.1948H181.554V83.5997H171.034V80.0711H179.202V79.3197H171.001V77.8984H181.293ZM195.139 79.0746V80.7246H192.133C192.165 82.1867 193.244 83.6896 195.612 84.2858L194.697 85.8868C192.982 85.4539 191.79 84.5227 191.12 83.3383C190.458 84.6452 189.266 85.6826 187.526 86.1645L186.546 84.5146C188.914 83.9019 190.025 82.3337 190.058 80.7246H187.068V79.0746H190.058V77.5717H192.165V79.0746H195.139ZM198.455 77.637V80.9696H200.464V82.6849H198.455V86.1155H196.364V77.637H198.455ZM198.634 86.7526V88.3862H194.861C195.237 89.4807 196.699 90.5426 199.288 90.8856L198.553 92.4703C196.16 92.1517 194.477 91.196 193.619 89.9218C192.77 91.1879 191.095 92.119 188.735 92.4376L187.983 90.853C190.597 90.5344 192.043 89.5052 192.427 88.3862H188.62V86.7526H198.634ZM212.688 81.6884V83.322H202.298V78.1598H204.373V81.6884H212.688ZM214.207 84.923V86.5566H200.599V84.923H214.207ZM212.786 90.5099V92.1762H202.168V87.7654H204.259V90.5099H212.786ZM226.301 77.637V83.1587H228.49V84.8576H226.301V92.5356H224.21V77.637H226.301ZM222.135 79.0093V80.6919H217.234V87.21C219.391 87.1855 221.171 87.0875 223.148 86.7363L223.377 88.4842C221.073 88.8763 219.047 88.9416 216.417 88.9253H215.159V79.0093H222.135ZM236.205 78.8459V79.9731H238.982V77.6534H241.057V88.4679H238.982V84.8249H236.205V86.0828H229.148V78.8459H236.205ZM231.222 80.4959V84.4655H234.163V80.4959H231.222ZM241.367 90.5753V92.2415H231.157V87.4387H233.264V90.5753H241.367ZM236.205 83.175H238.982V81.6557H236.205V83.175ZM245.08 87.2754C245.096 85.2497 245.636 84.6126 246.616 84.0081C247.318 83.5507 247.857 83.0443 247.857 82.2928C247.857 81.476 247.22 80.9369 246.436 80.9369C245.668 80.9369 244.966 81.4434 244.933 82.4072H242.613C242.662 80.1038 244.361 79.0093 246.452 79.0093C248.723 79.0093 250.34 80.2018 250.34 82.2112C250.34 83.5507 249.654 84.4165 248.576 85.0536C247.661 85.6091 247.253 86.1318 247.236 87.2754V87.4551H245.08V87.2754ZM246.207 91.147C245.439 91.147 244.819 90.5263 244.835 89.7748C244.819 89.0233 245.439 88.4189 246.207 88.4189C246.926 88.4189 247.563 89.0233 247.563 89.7748C247.563 90.5263 246.926 91.147 246.207 91.147Z" fill="black"/>
<path d="M26.5015 316C24.6228 316 24.0733 316.002 23.9665 316.011C23.581 316.043 23.3411 316.104 23.0797 316.234C22.8783 316.334 22.7194 316.45 22.5626 316.612C22.2771 316.909 22.1041 317.274 22.0414 317.707C22.011 317.918 22.0021 317.961 22.0003 319.036C21.9996 319.394 22.0003 319.866 22.0003 320.498C22.0003 322.376 22.0024 322.925 22.0114 323.032C22.0425 323.407 22.1014 323.643 22.226 323.901C22.4641 324.396 22.9188 324.767 23.4546 324.905C23.6401 324.953 23.845 324.979 24.108 324.992C24.2194 324.997 25.3553 325 26.4918 325C27.6284 325 28.765 324.999 28.8736 324.993C29.1782 324.979 29.355 324.955 29.5506 324.904C30.0898 324.765 30.5362 324.4 30.7792 323.898C30.9014 323.646 30.9633 323.401 30.9914 323.046C30.9974 322.968 31 321.732 31 320.497C31 319.262 30.9972 318.028 30.9911 317.951C30.9628 317.589 30.9008 317.346 30.7747 317.089C30.6712 316.879 30.5563 316.722 30.3895 316.561C30.0918 316.277 29.7277 316.104 29.2939 316.041C29.0836 316.011 29.0418 316.002 27.9661 316H26.5015Z" fill="url(#paint1_radial_16_6)"/>
<path d="M26.5015 316C24.6228 316 24.0733 316.002 23.9665 316.011C23.581 316.043 23.3411 316.104 23.0797 316.234C22.8783 316.334 22.7194 316.45 22.5626 316.612C22.2771 316.909 22.1041 317.274 22.0414 317.707C22.011 317.918 22.0021 317.961 22.0003 319.036C21.9996 319.394 22.0003 319.866 22.0003 320.498C22.0003 322.376 22.0024 322.925 22.0114 323.032C22.0425 323.407 22.1014 323.643 22.226 323.901C22.4641 324.396 22.9188 324.767 23.4546 324.905C23.6401 324.953 23.845 324.979 24.108 324.992C24.2194 324.997 25.3553 325 26.4918 325C27.6284 325 28.765 324.999 28.8736 324.993C29.1782 324.979 29.355 324.955 29.5506 324.904C30.0898 324.765 30.5362 324.4 30.7792 323.898C30.9014 323.646 30.9633 323.401 30.9914 323.046C30.9974 322.968 31 321.732 31 320.497C31 319.262 30.9972 318.028 30.9911 317.951C30.9628 317.589 30.9008 317.346 30.7747 317.089C30.6712 316.879 30.5563 316.722 30.3895 316.561C30.0918 316.277 29.7277 316.104 29.2939 316.041C29.0836 316.011 29.0418 316.002 27.9661 316H26.5015Z" fill="url(#paint2_radial_16_6)"/>
<path d="M26.5015 316C24.6228 316 24.0733 316.002 23.9665 316.011C23.581 316.043 23.3411 316.104 23.0797 316.234C22.8783 316.334 22.7194 316.45 22.5626 316.612C22.2771 316.909 22.1041 317.274 22.0414 317.707C22.011 317.918 22.0021 317.961 22.0003 319.036C21.9996 319.394 22.0003 319.866 22.0003 320.498C22.0003 322.376 22.0024 322.925 22.0114 323.032C22.0425 323.407 22.1014 323.643 22.226 323.901C22.4641 324.396 22.9188 324.767 23.4546 324.905C23.6401 324.953 23.845 324.979 24.108 324.992C24.2194 324.997 25.3553 325 26.4918 325C27.6284 325 28.765 324.999 28.8736 324.993C29.1782 324.979 29.355 324.955 29.5506 324.904C30.0898 324.765 30.5362 324.4 30.7792 323.898C30.9014 323.646 30.9633 323.401 30.9914 323.046C30.9974 322.968 31 321.732 31 320.497C31 319.262 30.9972 318.028 30.9911 317.951C30.9628 317.589 30.9008 317.346 30.7747 317.089C30.6712 316.879 30.5563 316.722 30.3895 316.561C30.0918 316.277 29.7277 316.104 29.2939 316.041C29.0836 316.011 29.0418 316.002 27.9661 316H26.5015Z" fill="url(#paint3_radial_16_6)"/>
<path d="M26.5015 316C24.6228 316 24.0733 316.002 23.9665 316.011C23.581 316.043 23.3411 316.104 23.0797 316.234C22.8783 316.334 22.7194 316.45 22.5626 316.612C22.2771 316.909 22.1041 317.274 22.0414 317.707C22.011 317.918 22.0021 317.961 22.0003 319.036C21.9996 319.394 22.0003 319.866 22.0003 320.498C22.0003 322.376 22.0024 322.925 22.0114 323.032C22.0425 323.407 22.1014 323.643 22.226 323.901C22.4641 324.396 22.9188 324.767 23.4546 324.905C23.6401 324.953 23.845 324.979 24.108 324.992C24.2194 324.997 25.3553 325 26.4918 325C27.6284 325 28.765 324.999 28.8736 324.993C29.1782 324.979 29.355 324.955 29.5506 324.904C30.0898 324.765 30.5362 324.4 30.7792 323.898C30.9014 323.646 30.9633 323.401 30.9914 323.046C30.9974 322.968 31 321.732 31 320.497C31 319.262 30.9972 318.028 30.9911 317.951C30.9628 317.589 30.9008 317.346 30.7747 317.089C30.6712 316.879 30.5563 316.722 30.3895 316.561C30.0918 316.277 29.7277 316.104 29.2939 316.041C29.0836 316.011 29.0418 316.002 27.9661 316H26.5015Z" fill="url(#paint4_radial_16_6)"/>
<path d="M26.5018 317.156C25.593 317.156 25.479 317.16 25.122 317.176C24.7658 317.192 24.5226 317.248 24.3099 317.331C24.0898 317.417 23.9031 317.531 23.7171 317.717C23.531 317.903 23.4166 318.089 23.3309 318.309C23.2479 318.522 23.1915 318.765 23.1754 319.121C23.1595 319.477 23.1553 319.591 23.1553 320.499C23.1553 321.408 23.1593 321.521 23.1755 321.878C23.1919 322.234 23.2483 322.477 23.331 322.689C23.4165 322.909 23.5308 323.096 23.7169 323.282C23.9028 323.468 24.0895 323.582 24.3095 323.668C24.5224 323.75 24.7656 323.807 25.1218 323.823C25.4787 323.839 25.5927 323.843 26.5014 323.843C27.4103 323.843 27.524 323.839 27.8809 323.823C28.2371 323.807 28.4806 323.75 28.6935 323.668C28.9135 323.582 29.0999 323.468 29.2858 323.282C29.472 323.096 29.5863 322.909 29.6721 322.689C29.7543 322.477 29.8108 322.234 29.8275 321.878C29.8436 321.521 29.8477 321.408 29.8477 320.499C29.8477 319.591 29.8436 319.477 29.8275 319.121C29.8108 318.765 29.7543 318.522 29.6721 318.309C29.5863 318.089 29.472 317.903 29.2858 317.717C29.0997 317.531 28.9136 317.416 28.6933 317.331C28.4799 317.248 28.2366 317.192 27.8804 317.176C27.5235 317.16 27.4098 317.156 26.5008 317.156H26.5018ZM26.2016 317.758C26.2907 317.758 26.3901 317.758 26.5018 317.758C27.3953 317.758 27.5012 317.761 27.854 317.777C28.1802 317.792 28.3573 317.847 28.4753 317.893C28.6314 317.953 28.7428 318.026 28.8598 318.143C28.9769 318.26 29.0494 318.371 29.1102 318.527C29.156 318.645 29.2106 318.822 29.2255 319.148C29.2415 319.5 29.245 319.606 29.245 320.499C29.245 321.391 29.2415 321.497 29.2255 321.849C29.2105 322.175 29.156 322.352 29.1102 322.47C29.0496 322.626 28.9769 322.737 28.8598 322.854C28.7427 322.971 28.6315 323.044 28.4753 323.104C28.3575 323.15 28.1802 323.205 27.854 323.219C27.5012 323.236 27.3953 323.239 26.5018 323.239C25.6083 323.239 25.5024 323.236 25.1496 323.219C24.8234 323.204 24.6463 323.15 24.5283 323.104C24.3721 323.044 24.2606 322.971 24.1435 322.854C24.0263 322.737 23.9538 322.626 23.8931 322.47C23.8473 322.352 23.7927 322.175 23.7778 321.849C23.7618 321.497 23.7586 321.391 23.7586 320.498C23.7586 319.605 23.7618 319.5 23.7778 319.147C23.7927 318.821 23.8473 318.644 23.8931 318.526C23.9537 318.37 24.0263 318.259 24.1435 318.142C24.2606 318.025 24.3721 317.952 24.5283 317.891C24.6462 317.845 24.8234 317.791 25.1496 317.776C25.4583 317.762 25.578 317.758 26.2016 317.757L26.2016 317.758ZM28.288 318.313C28.0663 318.313 27.8865 318.493 27.8865 318.715C27.8865 318.936 28.0663 319.116 28.288 319.116C28.5097 319.116 28.6896 318.936 28.6896 318.715C28.6896 318.493 28.5097 318.313 28.288 318.313L28.288 318.313ZM26.5018 318.782C25.5528 318.782 24.7834 319.551 24.7834 320.499C24.7834 321.448 25.5528 322.216 26.5018 322.216C27.4508 322.216 28.22 321.448 28.22 320.499C28.22 319.551 27.4508 318.782 26.5017 318.782H26.5018ZM26.5018 319.385C27.1178 319.385 27.6172 319.884 27.6172 320.499C27.6172 321.115 27.1178 321.614 26.5018 321.614C25.8858 321.614 25.3864 321.115 25.3864 320.499C25.3864 319.884 25.8858 319.385 26.5018 319.385Z" fill="white"/>
<defs>
<filter id="filter0_d_16_6" x="177.047" y="220.047" width="36.0279" height="47.8403" filterUnits="userSpaceOnUse" color-interpolation-filters="sRGB">
<feFlood flood-opacity="0" result="BackgroundImageFix"/>
<feColorMatrix in="SourceAlpha" type="matrix" values="0 0 0 0 0 0 0 0 0 0 0 0 0 0 0 0 0 0 127 0" result="hardAlpha"/>
<feOffset/>
<feGaussianBlur stdDeviation="1.47655"/>
<feComposite in2="hardAlpha" operator="out"/>
<feColorMatrix type="matrix" values="0 0 0 0 0.301961 0 0 0 0 0.462745 0 0 0 0 0.94902 0 0 0 0.25 0"/>
<feBlend mode="normal" in2="BackgroundImageFix" result="effect1_dropShadow_16_6"/>
<feBlend mode="normal" in="SourceGraphic" in2="effect1_dropShadow_16_6" result="shape"/>
</filter>
<filter id="filter1_d_16_6" x="183.544" y="226.544" width="23.0343" height="23.0342" filterUnits="userSpaceOnUse" color-interpolation-filters="sRGB">
<feFlood flood-opacity="0" result="BackgroundImageFix"/>
<feColorMatrix in="SourceAlpha" type="matrix" values="0 0 0 0 0 0 0 0 0 0 0 0 0 0 0 0 0 0 127 0" result="hardAlpha"/>
<feOffset/>
<feGaussianBlur stdDeviation="1.47655"/>
<feComposite in2="hardAlpha" operator="out"/>
<feColorMatrix type="matrix" values="0 0 0 0 0.301961 0 0 0 0 0.462745 0 0 0 0 0.94902 0 0 0 0.25 0"/>
<feBlend mode="normal" in2="BackgroundImageFix" result="effect1_dropShadow_16_6"/>
<feBlend mode="normal" in="SourceGraphic" in2="effect1_dropShadow_16_6" result="shape"/>
</filter>
<radialGradient id="paint0_radial_16_6" cx="0" cy="0" r="1" gradientUnits="userSpaceOnUse" gradientTransform="translate(201 269) rotate(57.0569) scale(83.2793 77.3013)">
<stop stop-color="white"/>
<stop offset="1" stop-color="#D6E7FF" stop-opacity="0.8"/>
</radialGradient>
<radialGradient id="paint1_radial_16_6" cx="0" cy="0" r="1" gradientUnits="userSpaceOnUse" gradientTransform="translate(30.7094 320.218) rotate(164.25) scale(5.75049 4.14295)">
<stop stop-color="#FF005F"/>
<stop offset="1" stop-color="#FC01D8"/>
</radialGradient>
<radialGradient id="paint2_radial_16_6" cx="0" cy="0" r="1" gradientUnits="userSpaceOnUse" gradientTransform="translate(24.3906 325.693) rotate(-90) scale(7.18397 7.62204)">
<stop stop-color="#FFCC00"/>
<stop offset="0.1242" stop-color="#FFCC00"/>
<stop offset="0.5672" stop-color="#FE4A05"/>
<stop offset="0.6942" stop-color="#FF0F3F"/>
<stop offset="1" stop-color="#FE0657" stop-opacity="0"/>
</radialGradient>
<radialGradient id="paint3_radial_16_6" cx="0" cy="0" r="1" gradientUnits="userSpaceOnUse" gradientTransform="translate(26.7274 324.873) rotate(-59.8703) scale(2.97063 3.86743)">
<stop stop-color="#FFCC00"/>
<stop offset="1" stop-color="#FFCC00" stop-opacity="0"/>
</radialGradient>
<radialGradient id="paint4_radial_16_6" cx="0" cy="0" r="1" gradientUnits="userSpaceOnUse" gradientTransform="translate(23.2211 316.366) rotate(164.274) scale(5.6867 1.93746)">
<stop stop-color="#780CFF"/>
<stop offset="1" stop-color="#820BFF" stop-opacity="0"/>
</radialGradient>
</defs>
</svg>
